<svg xmlns="http://www.w3.org/2000/svg" viewBox="0 0 2627.86 1606.57">
  <g opacity=".28">
    <path fill="#fff" fill-rule="evenodd" d="M73 1579.12a9.1 9.1 0 0 0 4.52 7.89l22.89 13.34a9 9 0 0 0 9 0l22.93-13.35a9.1 9.1 0 0 0 4.52-7.89v-26.67a9.1 9.1 0 0 0-4.52-7.89l-22.89-13.34a9 9 0 0 0-9 0l-22.89 13.34a9.1 9.1 0 0 0-4.52 7.89zm-73-122a9.1 9.1 0 0 0 4.52 7.88l22.89 13.34a9 9 0 0 0 9 0L59.34 1465a9.1 9.1 0 0 0 4.52-7.89v-26.67a9.1 9.1 0 0 0-4.52-7.89l-22.89-13.34a9 9 0 0 0-9 0l-22.93 13.35a9.1 9.1 0 0 0-4.52 7.89zm73 0a9.1 9.1 0 0 0 4.52 7.89l22.89 13.34a9 9 0 0 0 9 0l22.93-13.35a9.1 9.1 0 0 0 4.52-7.89v-26.67a9.1 9.1 0 0 0-4.52-7.89l-22.89-13.34a9 9 0 0 0-9 0l-22.89 13.34a9.1 9.1 0 0 0-4.52 7.89zm73 122a9.1 9.1 0 0 0 4.52 7.89l22.89 13.34a9 9 0 0 0 9 0l22.93-13.35a9.1 9.1 0 0 0 4.52-7.89v-26.67a9.1 9.1 0 0 0-4.52-7.89l-22.89-13.34a9 9 0 0 0-9 0l-22.89 13.34a9.1 9.1 0 0 0-4.52 7.89zm0-122a9.1 9.1 0 0 0 4.52 7.89l22.89 13.34a9 9 0 0 0 9 0l22.93-13.35a9.1 9.1 0 0 0 4.52-7.89v-26.67a9.1 9.1 0 0 0-4.52-7.89l-22.89-13.34a9 9 0 0 0-9 0l-22.89 13.34a9.1 9.1 0 0 0-4.52 7.89zm-146-127a9.1 9.1 0 0 0 4.52 7.88l22.89 13.34a9 9 0 0 0 9 0L59.34 1338a9.1 9.1 0 0 0 4.52-7.89v-26.67a9.1 9.1 0 0 0-4.52-7.89l-22.89-13.34a9 9 0 0 0-9 0l-22.93 13.35a9.1 9.1 0 0 0-4.52 7.89zm73 0a9.1 9.1 0 0 0 4.52 7.89l22.89 13.34a9 9 0 0 0 9 0l22.93-13.35a9.1 9.1 0 0 0 4.52-7.89v-26.67a9.1 9.1 0 0 0-4.52-7.89l-22.89-13.34a9 9 0 0 0-9 0l-22.89 13.34a9.1 9.1 0 0 0-4.52 7.89zm73 0a9.1 9.1 0 0 0 4.52 7.89l22.89 13.34a9 9 0 0 0 9 0l22.93-13.35a9.1 9.1 0 0 0 4.52-7.89v-26.67a9.1 9.1 0 0 0-4.52-7.89l-22.89-13.34a9 9 0 0 0-9 0l-22.89 13.34a9.1 9.1 0 0 0-4.52 7.89zm-36 188a9.1 9.1 0 0 0 4.52 7.89l22.89 13.34a9 9 0 0 0 9 0l22.93-13.35a9.1 9.1 0 0 0 4.52-7.89v-26.67a9.1 9.1 0 0 0-4.52-7.89l-22.89-13.34a9 9 0 0 0-9 0l-22.89 13.34a9.1 9.1 0 0 0-4.52 7.89zm-75-250a9.1 9.1 0 0 0 4.52 7.89l22.89 13.34a9 9 0 0 0 9 0L94.34 1276a9.1 9.1 0 0 0 4.52-7.89v-26.67a9.1 9.1 0 0 0-4.52-7.89l-22.89-13.34a9 9 0 0 0-9 0l-22.89 13.34a9.1 9.1 0 0 0-4.52 7.89zm147.14 125.54a9.13 9.13 0 0 0 4.52 7.89l22.89 13.34a9 9 0 0 0 9 0l22.89-13.34a9.13 9.13 0 0 0 4.52-7.89V1367a9.13 9.13 0 0 0-4.52-7.9l-22.89-13.33a9 9 0 0 0-9 0l-22.89 13.33a9.13 9.13 0 0 0-4.52 7.9zM0 1204.12a9.1 9.1 0 0 0 4.52 7.88l22.89 13.34a9 9 0 0 0 9 0L59.34 1212a9.1 9.1 0 0 0 4.52-7.89v-26.67a9.1 9.1 0 0 0-4.52-7.89l-22.89-13.34a9 9 0 0 0-9 0l-22.93 13.35a9.1 9.1 0 0 0-4.52 7.89zm146 0a9.1 9.1 0 0 0 4.52 7.89l22.89 13.34a9 9 0 0 0 9 0l22.93-13.35a9.1 9.1 0 0 0 4.52-7.89v-26.67a9.1 9.1 0 0 0-4.52-7.89l-22.89-13.34a9 9 0 0 0-9 0l-22.89 13.34a9.1 9.1 0 0 0-4.52 7.89zm-73-127a9.1 9.1 0 0 0 4.52 7.89l22.89 13.34a9 9 0 0 0 9 0l22.93-13.35a9.1 9.1 0 0 0 4.52-7.89v-26.67a9.1 9.1 0 0 0-4.52-7.89l-22.89-13.34a9 9 0 0 0-9 0l-22.89 13.34a9.1 9.1 0 0 0-4.52 7.89zm73 0a9.1 9.1 0 0 0 4.52 7.89l22.89 13.34a9 9 0 0 0 9 0l22.93-13.35a9.1 9.1 0 0 0 4.52-7.89v-26.67a9.1 9.1 0 0 0-4.52-7.89l-22.89-13.34a9 9 0 0 0-9 0l-22.89 13.34a9.1 9.1 0 0 0-4.52 7.89zm-111 64a9.1 9.1 0 0 0 4.52 7.89l22.89 13.34a9 9 0 0 0 9 0L94.34 1149a9.1 9.1 0 0 0 4.52-7.89v-26.67a9.1 9.1 0 0 0-4.52-7.89l-22.89-13.34a9 9 0 0 0-9 0l-22.89 13.34a9.1 9.1 0 0 0-4.52 7.89zm75 0a9.1 9.1 0 0 0 4.52 7.89l22.89 13.34a9 9 0 0 0 9 0l22.93-13.35a9.1 9.1 0 0 0 4.52-7.89v-26.67a9.1 9.1 0 0 0-4.52-7.89l-22.89-13.34a9 9 0 0 0-9 0l-22.89 13.34a9.1 9.1 0 0 0-4.52 7.89zm72 0a9.1 9.1 0 0 0 4.52 7.89l22.89 13.34a9 9 0 0 0 9 0l22.93-13.35a9.1 9.1 0 0 0 4.52-7.89v-26.67a9.1 9.1 0 0 0-4.52-7.89l-22.89-13.34a9 9 0 0 0-9 0l-22.89 13.34a9.1 9.1 0 0 0-4.52 7.89zm-72-129a9.1 9.1 0 0 0 4.52 7.89l22.89 13.34a9 9 0 0 0 9 0l22.93-13.35a9.1 9.1 0 0 0 4.52-7.89v-26.66a9.1 9.1 0 0 0-4.52-7.89l-22.89-13.34a9 9 0 0 0-9 0l-22.89 13.34a9.1 9.1 0 0 0-4.52 7.89zm-37-64a9.1 9.1 0 0 0 4.52 7.88l22.89 13.34a9 9 0 0 0 9 0L132.34 956a9.1 9.1 0 0 0 4.52-7.89v-26.66a9.1 9.1 0 0 0-4.52-7.89l-22.89-13.34a9 9 0 0 0-9 0l-22.93 13.34a9.1 9.1 0 0 0-4.52 7.89zm73 0a9.1 9.1 0 0 0 4.52 7.89l22.89 13.34a9 9 0 0 0 9 0L205.34 956a9.1 9.1 0 0 0 4.52-7.89v-26.66a9.1 9.1 0 0 0-4.52-7.89l-22.89-13.34a9 9 0 0 0-9 0l-22.89 13.34a9.1 9.1 0 0 0-4.52 7.89zm-73-127a9.1 9.1 0 0 0 4.52 7.88l22.89 13.34a9 9 0 0 0 9 0L132.34 829a9.1 9.1 0 0 0 4.52-7.89v-26.66a9.1 9.1 0 0 0-4.52-7.89l-22.89-13.34a9 9 0 0 0-9 0l-22.93 13.34a9.1 9.1 0 0 0-4.52 7.89zm73 0a9.1 9.1 0 0 0 4.52 7.89l22.89 13.34a9 9 0 0 0 9 0L205.34 829a9.1 9.1 0 0 0 4.52-7.89v-26.66a9.1 9.1 0 0 0-4.52-7.89l-22.89-13.34a9 9 0 0 0-9 0l-22.89 13.34a9.1 9.1 0 0 0-4.52 7.89zm-111 64a9.1 9.1 0 0 0 4.52 7.88l22.89 13.34a9 9 0 0 0 9 0L94.34 893a9.1 9.1 0 0 0 4.52-7.89v-26.66a9.1 9.1 0 0 0-4.52-7.89l-22.89-13.34a9 9 0 0 0-9 0l-22.93 13.34a9.1 9.1 0 0 0-4.52 7.89zm75 0a9.1 9.1 0 0 0 4.52 7.89l22.89 13.34a9 9 0 0 0 9 0L169.34 893a9.1 9.1 0 0 0 4.52-7.89v-26.66a9.1 9.1 0 0 0-4.52-7.89l-22.89-13.34a9 9 0 0 0-9 0l-22.89 13.34a9.1 9.1 0 0 0-4.52 7.89zm72 0a9.1 9.1 0 0 0 4.52 7.89l22.89 13.34a9 9 0 0 0 9 0L241.34 893a9.1 9.1 0 0 0 4.52-7.89v-26.66a9.1 9.1 0 0 0-4.52-7.89l-22.89-13.34a9 9 0 0 0-9 0l-22.89 13.34a9.1 9.1 0 0 0-4.52 7.89zm-147-129a9.1 9.1 0 0 0 4.52 7.88l22.89 13.34a9 9 0 0 0 9 0L94.34 764a9.1 9.1 0 0 0 4.52-7.89v-26.66a9.1 9.1 0 0 0-4.52-7.89l-22.89-13.34a9 9 0 0 0-9 0l-22.93 13.34a9.1 9.1 0 0 0-4.52 7.89zm75 0a9.1 9.1 0 0 0 4.52 7.89l22.89 13.34a9 9 0 0 0 9 0L169.34 764a9.1 9.1 0 0 0 4.52-7.89v-26.66a9.1 9.1 0 0 0-4.52-7.89l-22.89-13.34a9 9 0 0 0-9 0l-22.89 13.34a9.1 9.1 0 0 0-4.52 7.89zm36-64a9.1 9.1 0 0 0 4.52 7.89l22.89 13.34a9 9 0 0 0 9 0L205.34 700a9.1 9.1 0 0 0 4.52-7.89v-26.66a9.1 9.1 0 0 0-4.52-7.89l-22.89-13.34a9 9 0 0 0-9 0l-22.89 13.34a9.1 9.1 0 0 0-4.52 7.89zm-146-127A9.1 9.1 0 0 0 4.52 573l22.89 13.34a9 9 0 0 0 9 0L59.34 573a9.1 9.1 0 0 0 4.52-7.89v-26.66a9.1 9.1 0 0 0-4.52-7.89l-22.89-13.34a9 9 0 0 0-9 0L4.52 530.56A9.1 9.1 0 0 0 0 538.45zm73 0a9.1 9.1 0 0 0 4.52 7.88l22.89 13.34a9 9 0 0 0 9 0L132.34 573a9.1 9.1 0 0 0 4.52-7.89v-26.66a9.1 9.1 0 0 0-4.52-7.89l-22.89-13.34a9 9 0 0 0-9 0l-22.93 13.34a9.1 9.1 0 0 0-4.52 7.89zm73 0a9.1 9.1 0 0 0 4.52 7.89l22.89 13.34a9 9 0 0 0 9 0L205.34 573a9.1 9.1 0 0 0 4.52-7.89v-26.66a9.1 9.1 0 0 0-4.52-7.89l-22.89-13.34a9 9 0 0 0-9 0l-22.89 13.34a9.1 9.1 0 0 0-4.52 7.89zm-111 64a9.1 9.1 0 0 0 4.52 7.88l22.89 13.34a9 9 0 0 0 9 0L94.34 637a9.1 9.1 0 0 0 4.52-7.89v-26.66a9.1 9.1 0 0 0-4.52-7.89l-22.89-13.34a9 9 0 0 0-9 0l-22.93 13.34a9.1 9.1 0 0 0-4.52 7.89zm75 0a9.1 9.1 0 0 0 4.52 7.89l22.89 13.34a9 9 0 0 0 9 0L169.34 637a9.1 9.1 0 0 0 4.52-7.89v-26.66a9.1 9.1 0 0 0-4.52-7.89l-22.89-13.34a9 9 0 0 0-9 0l-22.89 13.34a9.1 9.1 0 0 0-4.52 7.89zm72 0a9.1 9.1 0 0 0 4.52 7.89l22.89 13.34a9 9 0 0 0 9 0L241.34 637a9.1 9.1 0 0 0 4.52-7.89v-26.66a9.1 9.1 0 0 0-4.52-7.89l-22.89-13.34a9 9 0 0 0-9 0l-22.89 13.34a9.1 9.1 0 0 0-4.52 7.89zm-147-129a9.1 9.1 0 0 0 4.52 7.88l22.89 13.34a9 9 0 0 0 9 0L94.34 508a9.1 9.1 0 0 0 4.52-7.89v-26.66a9.1 9.1 0 0 0-4.52-7.89l-22.89-13.34a9 9 0 0 0-9 0l-22.93 13.34a9.1 9.1 0 0 0-4.52 7.89zm75 0a9.1 9.1 0 0 0 4.52 7.89l22.89 13.34a9 9 0 0 0 9 0L169.34 508a9.1 9.1 0 0 0 4.52-7.89v-26.66a9.1 9.1 0 0 0-4.52-7.89l-22.89-13.34a9 9 0 0 0-9 0l-22.89 13.34a9.1 9.1 0 0 0-4.52 7.89zm-37-64a9.1 9.1 0 0 0 4.52 7.88l22.89 13.34a9 9 0 0 0 9 0L132.34 444a9.1 9.1 0 0 0 4.52-7.89v-26.66a9.1 9.1 0 0 0-4.52-7.89l-22.89-13.34a9 9 0 0 0-9 0l-22.93 13.34a9.1 9.1 0 0 0-4.52 7.89zm73 0a9.1 9.1 0 0 0 4.52 7.89l22.89 13.34a9 9 0 0 0 9 0L205.34 444a9.1 9.1 0 0 0 4.52-7.89v-26.66a9.1 9.1 0 0 0-4.52-7.89l-22.89-13.34a9 9 0 0 0-9 0l-22.89 13.34a9.1 9.1 0 0 0-4.52 7.89zm-146-127A9.1 9.1 0 0 0 4.52 317l22.89 13.34a9 9 0 0 0 9 0L59.34 317a9.1 9.1 0 0 0 4.52-7.89v-26.66a9.1 9.1 0 0 0-4.52-7.89l-22.89-13.34a9 9 0 0 0-9 0L4.52 274.56A9.1 9.1 0 0 0 0 282.45zm73 0a9.1 9.1 0 0 0 4.52 7.88l22.89 13.34a9 9 0 0 0 9 0L132.34 317a9.1 9.1 0 0 0 4.52-7.89v-26.66a9.1 9.1 0 0 0-4.52-7.89l-22.89-13.34a9 9 0 0 0-9 0l-22.93 13.34a9.1 9.1 0 0 0-4.52 7.89zm73 0a9.1 9.1 0 0 0 4.52 7.89l22.89 13.34a9 9 0 0 0 9 0L205.34 317a9.1 9.1 0 0 0 4.52-7.89v-26.66a9.1 9.1 0 0 0-4.52-7.89l-22.89-13.34a9 9 0 0 0-9 0l-22.89 13.34a9.1 9.1 0 0 0-4.52 7.89zm36 64a9.1 9.1 0 0 0 4.52 7.89l22.89 13.34a9 9 0 0 0 9 0L241.34 381a9.1 9.1 0 0 0 4.52-7.89v-26.66a9.1 9.1 0 0 0-4.52-7.89l-22.89-13.34a9 9 0 0 0-9 0l-22.89 13.34a9.1 9.1 0 0 0-4.52 7.89zm-147-129a9.1 9.1 0 0 0 4.52 7.88l22.89 13.34a9 9 0 0 0 9 0L94.34 252a9.1 9.1 0 0 0 4.52-7.89v-26.66a9.1 9.1 0 0 0-4.52-7.89l-22.89-13.34a9 9 0 0 0-9 0l-22.93 13.34a9.1 9.1 0 0 0-4.52 7.89zm75 0a9.1 9.1 0 0 0 4.52 7.89l22.89 13.34a9 9 0 0 0 9 0L169.34 252a9.1 9.1 0 0 0 4.52-7.89v-26.66a9.1 9.1 0 0 0-4.52-7.89l-22.89-13.34a9 9 0 0 0-9 0l-22.89 13.34a9.1 9.1 0 0 0-4.52 7.89zm-37-64a9.1 9.1 0 0 0 4.52 7.88l22.89 13.34a9 9 0 0 0 9 0L132.34 188a9.1 9.1 0 0 0 4.52-7.89v-26.66a9.1 9.1 0 0 0-4.52-7.89l-22.89-13.34a9 9 0 0 0-9 0l-22.93 13.34a9.1 9.1 0 0 0-4.52 7.89zm73 0a9.1 9.1 0 0 0 4.52 7.89l22.89 13.34a9 9 0 0 0 9 0L205.34 188a9.1 9.1 0 0 0 4.52-7.89v-26.66a9.1 9.1 0 0 0-4.52-7.89l-22.89-13.34a9 9 0 0 0-9 0l-22.89 13.34a9.1 9.1 0 0 0-4.52 7.89zM0 53.12A9.1 9.1 0 0 0 4.52 61l22.89 13.35a9 9 0 0 0 9 0L59.34 61a9.1 9.1 0 0 0 4.52-7.89V26.45a9.1 9.1 0 0 0-4.52-7.89L36.45 5.22a9 9 0 0 0-9 0L4.52 18.56A9.1 9.1 0 0 0 0 26.45zm146 0a9.1 9.1 0 0 0 4.52 7.88l22.89 13.34a9 9 0 0 0 9 0L205.34 61a9.1 9.1 0 0 0 4.52-7.89V26.45a9.1 9.1 0 0 0-4.52-7.89L182.45 5.22a9 9 0 0 0-9 0l-22.93 13.34a9.1 9.1 0 0 0-4.52 7.89zm-111 64a9.1 9.1 0 0 0 4.52 7.88l22.89 13.34a9 9 0 0 0 9 0L94.34 125a9.1 9.1 0 0 0 4.52-7.89V90.45a9.1 9.1 0 0 0-4.52-7.89L71.45 69.22a9 9 0 0 0-9 0L39.52 82.56A9.1 9.1 0 0 0 35 90.45zm75 0a9.1 9.1 0 0 0 4.52 7.89l22.89 13.34a9 9 0 0 0 9 0L169.34 125a9.1 9.1 0 0 0 4.52-7.89V90.45a9.1 9.1 0 0 0-4.52-7.89l-22.89-13.34a9 9 0 0 0-9 0l-22.93 13.34a9.1 9.1 0 0 0-4.52 7.89zm72 0a9.1 9.1 0 0 0 4.52 7.89l22.89 13.34a9 9 0 0 0 9 0L241.34 125a9.1 9.1 0 0 0 4.52-7.89V90.45a9.1 9.1 0 0 0-4.52-7.89l-22.89-13.34a9 9 0 0 0-9 0l-22.93 13.34a9.1 9.1 0 0 0-4.52 7.89zm39-64a9.1 9.1 0 0 0 4.52 7.88l22.89 13.34a9 9 0 0 0 9 0L280.34 61a9.1 9.1 0 0 0 4.52-7.89V26.45a9.1 9.1 0 0 0-4.52-7.89L257.45 5.22a9 9 0 0 0-9 0l-22.93 13.34a9.1 9.1 0 0 0-4.52 7.89zm73 0a9.1 9.1 0 0 0 4.52 7.88l22.89 13.34a9 9 0 0 0 9 0L353.34 61a9.1 9.1 0 0 0 4.52-7.89V26.45a9.1 9.1 0 0 0-4.52-7.89L330.45 5.22a9 9 0 0 0-9 0l-22.93 13.34a9.1 9.1 0 0 0-4.52 7.89zm73 0a9.1 9.1 0 0 0 4.52 7.88l22.89 13.34a9 9 0 0 0 9 0L426.34 61a9.1 9.1 0 0 0 4.52-7.89V26.45a9.1 9.1 0 0 0-4.52-7.89L403.45 5.22a9 9 0 0 0-9 0l-22.93 13.34a9.1 9.1 0 0 0-4.52 7.89zm-111 64a9.1 9.1 0 0 0 4.52 7.89l22.89 13.34a9 9 0 0 0 9 0L315.34 125a9.1 9.1 0 0 0 4.52-7.89V90.45a9.1 9.1 0 0 0-4.52-7.89l-22.89-13.34a9 9 0 0 0-9 0l-22.93 13.34a9.1 9.1 0 0 0-4.52 7.89zm75 0a9.1 9.1 0 0 0 4.52 7.89l22.89 13.34a9 9 0 0 0 9 0L390.34 125a9.1 9.1 0 0 0 4.52-7.89V90.45a9.1 9.1 0 0 0-4.52-7.89l-22.89-13.34a9 9 0 0 0-9 0l-22.93 13.34a9.1 9.1 0 0 0-4.52 7.89zm72 0a9.1 9.1 0 0 0 4.52 7.89l22.89 13.34a9 9 0 0 0 9 0L462.34 125a9.1 9.1 0 0 0 4.52-7.89V90.45a9.1 9.1 0 0 0-4.52-7.89l-22.89-13.34a9 9 0 0 0-9 0l-22.93 13.34a9.1 9.1 0 0 0-4.52 7.89zm-184 1467a9.1 9.1 0 0 0 4.52 7.89l22.89 13.34a9 9 0 0 0 9 0l22.93-13.35a9.1 9.1 0 0 0 4.52-7.89v-26.67a9.1 9.1 0 0 0-4.52-7.89l-22.89-13.34a9 9 0 0 0-9 0l-22.89 13.34a9.1 9.1 0 0 0-4.52 7.89zm146 0a9.1 9.1 0 0 0 4.52 7.89l22.89 13.34a9 9 0 0 0 9 0l22.93-13.35a9.1 9.1 0 0 0 4.52-7.89v-26.67a9.1 9.1 0 0 0-4.52-7.89l-22.89-13.34a9 9 0 0 0-9 0l-22.89 13.34a9.1 9.1 0 0 0-4.52 7.89zm-146-127a9.1 9.1 0 0 0 4.52 7.89l22.89 13.34a9 9 0 0 0 9 0l22.93-13.35a9.1 9.1 0 0 0 4.52-7.89v-26.67a9.1 9.1 0 0 0-4.52-7.89l-22.89-13.34a9 9 0 0 0-9 0l-22.89 13.34a9.1 9.1 0 0 0-4.52 7.89zm73 0a9.1 9.1 0 0 0 4.52 7.89l22.89 13.34a9 9 0 0 0 9 0l22.93-13.35a9.1 9.1 0 0 0 4.52-7.89v-26.67a9.1 9.1 0 0 0-4.52-7.89l-22.89-13.34a9 9 0 0 0-9 0l-22.89 13.34a9.1 9.1 0 0 0-4.52 7.89zm73 0a9.1 9.1 0 0 0 4.52 7.89l22.89 13.34a9 9 0 0 0 9 0l22.93-13.35a9.1 9.1 0 0 0 4.52-7.89v-26.67a9.1 9.1 0 0 0-4.52-7.89l-22.89-13.34a9 9 0 0 0-9 0l-22.89 13.34a9.1 9.1 0 0 0-4.52 7.89zm-111-62a9.1 9.1 0 0 0 4.52 7.89l22.89 13.34a9 9 0 0 0 9 0l22.93-13.35a9.1 9.1 0 0 0 4.52-7.89v-26.67a9.1 9.1 0 0 0-4.52-7.89l-22.89-13.34a9 9 0 0 0-9 0l-22.89 13.34a9.1 9.1 0 0 0-4.52 7.89zm75 0a9.1 9.1 0 0 0 4.52 7.89l22.89 13.34a9 9 0 0 0 9 0l22.93-13.35a9.1 9.1 0 0 0 4.52-7.89v-26.67a9.1 9.1 0 0 0-4.52-7.89l-22.89-13.34a9 9 0 0 0-9 0l-22.89 13.34a9.1 9.1 0 0 0-4.52 7.89zm-75 126a9.1 9.1 0 0 0 4.52 7.89l22.89 13.34a9 9 0 0 0 9 0l22.93-13.35a9.1 9.1 0 0 0 4.52-7.89v-26.67a9.1 9.1 0 0 0-4.52-7.89l-22.89-13.34a9 9 0 0 0-9 0l-22.89 13.34a9.1 9.1 0 0 0-4.52 7.89zm111-190a9.1 9.1 0 0 0 4.52 7.89l22.89 13.34a9 9 0 0 0 9 0l22.93-13.35a9.1 9.1 0 0 0 4.52-7.89v-26.67a9.1 9.1 0 0 0-4.52-7.89l-22.89-13.34a9 9 0 0 0-9 0l-22.89 13.34a9.1 9.1 0 0 0-4.52 7.89zm-146-127a9.1 9.1 0 0 0 4.52 7.89l22.89 13.34a9 9 0 0 0 9 0l22.93-13.35a9.1 9.1 0 0 0 4.52-7.89v-26.67a9.1 9.1 0 0 0-4.52-7.89l-22.89-13.34a9 9 0 0 0-9 0l-22.89 13.34a9.1 9.1 0 0 0-4.52 7.89zm35 64a9.1 9.1 0 0 0 4.52 7.89l22.89 13.34a9 9 0 0 0 9 0l22.93-13.35a9.1 9.1 0 0 0 4.52-7.89v-26.67a9.1 9.1 0 0 0-4.52-7.89l-22.89-13.34a9 9 0 0 0-9 0l-22.89 13.34a9.1 9.1 0 0 0-4.52 7.89zm75 0a9.1 9.1 0 0 0 4.52 7.89l22.89 13.34a9 9 0 0 0 9 0l22.93-13.35a9.1 9.1 0 0 0 4.52-7.89v-26.67a9.1 9.1 0 0 0-4.52-7.89l-22.89-13.34a9 9 0 0 0-9 0l-22.89 13.34a9.1 9.1 0 0 0-4.52 7.89zm72 0a9.1 9.1 0 0 0 4.52 7.89l22.89 13.34a9 9 0 0 0 9 0l22.93-13.35a9.1 9.1 0 0 0 4.52-7.89v-26.67a9.1 9.1 0 0 0-4.52-7.89l-22.89-13.34a9 9 0 0 0-9 0l-22.89 13.34a9.1 9.1 0 0 0-4.52 7.89zm-147-129a9.1 9.1 0 0 0 4.52 7.89l22.89 13.34a9 9 0 0 0 9 0l22.93-13.35a9.1 9.1 0 0 0 4.52-7.89v-26.67a9.1 9.1 0 0 0-4.52-7.89l-22.89-13.34a9 9 0 0 0-9 0l-22.89 13.34a9.1 9.1 0 0 0-4.52 7.89zm75 0a9.1 9.1 0 0 0 4.52 7.89l22.89 13.34a9 9 0 0 0 9 0l22.93-13.35a9.1 9.1 0 0 0 4.52-7.89v-26.67a9.1 9.1 0 0 0-4.52-7.89l-22.89-13.34a9 9 0 0 0-9 0l-22.89 13.34a9.1 9.1 0 0 0-4.52 7.89zm-110-64a9.1 9.1 0 0 0 4.52 7.89l22.89 13.34a9 9 0 0 0 9 0l22.93-13.35a9.1 9.1 0 0 0 4.52-7.89v-26.67a9.1 9.1 0 0 0-4.52-7.89l-22.89-13.34a9 9 0 0 0-9 0l-22.89 13.34a9.1 9.1 0 0 0-4.52 7.89zm73 0a9.1 9.1 0 0 0 4.52 7.89l22.89 13.34a9 9 0 0 0 9 0l22.93-13.35a9.1 9.1 0 0 0 4.52-7.89v-26.67a9.1 9.1 0 0 0-4.52-7.89l-22.89-13.34a9 9 0 0 0-9 0l-22.89 13.34a9.1 9.1 0 0 0-4.52 7.89zm73 0a9.1 9.1 0 0 0 4.52 7.89l22.89 13.34a9 9 0 0 0 9 0l22.93-13.35a9.1 9.1 0 0 0 4.52-7.89v-26.67a9.1 9.1 0 0 0-4.52-7.89l-22.89-13.34a9 9 0 0 0-9 0l-22.89 13.34a9.1 9.1 0 0 0-4.52 7.89zm-146-127a9.1 9.1 0 0 0 4.52 7.89l22.89 13.34a9 9 0 0 0 9 0L278.34 956a9.1 9.1 0 0 0 4.52-7.89v-26.66a9.1 9.1 0 0 0-4.52-7.89l-22.89-13.34a9 9 0 0 0-9 0l-22.89 13.34a9.1 9.1 0 0 0-4.52 7.89zm73 0a9.1 9.1 0 0 0 4.52 7.89l22.89 13.34a9 9 0 0 0 9 0L351.34 956a9.1 9.1 0 0 0 4.52-7.89v-26.66a9.1 9.1 0 0 0-4.52-7.89l-22.89-13.34a9 9 0 0 0-9 0l-22.89 13.34a9.1 9.1 0 0 0-4.52 7.89zm73 0a9.1 9.1 0 0 0 4.52 7.89l22.89 13.34a9 9 0 0 0 9 0L424.34 956a9.1 9.1 0 0 0 4.52-7.89v-26.66a9.1 9.1 0 0 0-4.52-7.89l-22.89-13.34a9 9 0 0 0-9 0l-22.89 13.34a9.1 9.1 0 0 0-4.52 7.89zm-111 64a9.1 9.1 0 0 0 4.52 7.89l22.89 13.34a9 9 0 0 0 9 0l22.93-13.35a9.1 9.1 0 0 0 4.52-7.89v-26.66a9.1 9.1 0 0 0-4.52-7.89l-22.89-13.34a9 9 0 0 0-9 0l-22.89 13.34a9.1 9.1 0 0 0-4.52 7.89zm147 0a9.1 9.1 0 0 0 4.52 7.89l22.89 13.34a9 9 0 0 0 9 0l22.93-13.35a9.1 9.1 0 0 0 4.52-7.89v-26.66a9.1 9.1 0 0 0-4.52-7.89l-22.89-13.34a9 9 0 0 0-9 0l-22.89 13.34a9.1 9.1 0 0 0-4.52 7.89zm-182-193a9.1 9.1 0 0 0 4.52 7.89l22.89 13.34a9 9 0 0 0 9 0L278.34 827a9.1 9.1 0 0 0 4.52-7.89v-26.66a9.1 9.1 0 0 0-4.52-7.89l-22.89-13.34a9 9 0 0 0-9 0l-22.89 13.34a9.1 9.1 0 0 0-4.52 7.89zm146 0a9.1 9.1 0 0 0 4.52 7.89l22.89 13.34a9 9 0 0 0 9 0L424.34 827a9.1 9.1 0 0 0 4.52-7.89v-26.66a9.1 9.1 0 0 0-4.52-7.89l-22.89-13.34a9 9 0 0 0-9 0l-22.89 13.34a9.1 9.1 0 0 0-4.52 7.89zm-146-127a9.1 9.1 0 0 0 4.52 7.89l22.89 13.34a9 9 0 0 0 9 0L278.34 700a9.1 9.1 0 0 0 4.52-7.89v-26.66a9.1 9.1 0 0 0-4.52-7.89l-22.89-13.34a9 9 0 0 0-9 0l-22.89 13.34a9.1 9.1 0 0 0-4.52 7.89zm73 0a9.1 9.1 0 0 0 4.52 7.89l22.89 13.34a9 9 0 0 0 9 0L351.34 700a9.1 9.1 0 0 0 4.52-7.89v-26.66a9.1 9.1 0 0 0-4.52-7.89l-22.89-13.34a9 9 0 0 0-9 0l-22.89 13.34a9.1 9.1 0 0 0-4.52 7.89zm73 0a9.1 9.1 0 0 0 4.52 7.89l22.89 13.34a9 9 0 0 0 9 0L424.34 700a9.1 9.1 0 0 0 4.52-7.89v-26.66a9.1 9.1 0 0 0-4.52-7.89l-22.89-13.34a9 9 0 0 0-9 0l-22.89 13.34a9.1 9.1 0 0 0-4.52 7.89zm-111 64a9.1 9.1 0 0 0 4.52 7.89l22.89 13.34a9 9 0 0 0 9 0L313.34 764a9.1 9.1 0 0 0 4.52-7.89v-26.66a9.1 9.1 0 0 0-4.52-7.89l-22.89-13.34a9 9 0 0 0-9 0l-22.89 13.34a9.1 9.1 0 0 0-4.52 7.89zm75 0a9.1 9.1 0 0 0 4.52 7.89l22.89 13.34a9 9 0 0 0 9 0L388.34 764a9.1 9.1 0 0 0 4.52-7.89v-26.66a9.1 9.1 0 0 0-4.52-7.89l-22.89-13.34a9 9 0 0 0-9 0l-22.89 13.34a9.1 9.1 0 0 0-4.52 7.89zm72 0a9.1 9.1 0 0 0 4.52 7.89l22.89 13.34a9 9 0 0 0 9 0L460.34 764a9.1 9.1 0 0 0 4.52-7.89v-26.66a9.1 9.1 0 0 0-4.52-7.89l-22.89-13.34a9 9 0 0 0-9 0l-22.89 13.34a9.1 9.1 0 0 0-4.52 7.89zm-147-129a9.1 9.1 0 0 0 4.52 7.89l22.89 13.34a9 9 0 0 0 9 0L313.34 635a9.1 9.1 0 0 0 4.52-7.89v-26.66a9.1 9.1 0 0 0-4.52-7.89l-22.89-13.34a9 9 0 0 0-9 0l-22.89 13.34a9.1 9.1 0 0 0-4.52 7.89zm75 0a9.1 9.1 0 0 0 4.52 7.89l22.89 13.34a9 9 0 0 0 9 0L388.34 635a9.1 9.1 0 0 0 4.52-7.89v-26.66a9.1 9.1 0 0 0-4.52-7.89l-22.89-13.34a9 9 0 0 0-9 0l-22.89 13.34a9.1 9.1 0 0 0-4.52 7.89zm-110-64a9.1 9.1 0 0 0 4.52 7.89l22.89 13.34a9 9 0 0 0 9 0L278.34 571a9.1 9.1 0 0 0 4.52-7.89v-26.66a9.1 9.1 0 0 0-4.52-7.89l-22.89-13.34a9 9 0 0 0-9 0l-22.89 13.34a9.1 9.1 0 0 0-4.52 7.89zm73 0a9.1 9.1 0 0 0 4.52 7.89l22.89 13.34a9 9 0 0 0 9 0L351.34 571a9.1 9.1 0 0 0 4.52-7.89v-26.66a9.1 9.1 0 0 0-4.52-7.89l-22.89-13.34a9 9 0 0 0-9 0l-22.89 13.34a9.1 9.1 0 0 0-4.52 7.89zm73 0a9.1 9.1 0 0 0 4.52 7.89l22.89 13.34a9 9 0 0 0 9 0L424.34 571a9.1 9.1 0 0 0 4.52-7.89v-26.66a9.1 9.1 0 0 0-4.52-7.89l-22.89-13.34a9 9 0 0 0-9 0l-22.89 13.34a9.1 9.1 0 0 0-4.52 7.89zm-146-127a9.1 9.1 0 0 0 4.52 7.89l22.89 13.34a9 9 0 0 0 9 0L278.34 444a9.1 9.1 0 0 0 4.52-7.89v-26.66a9.1 9.1 0 0 0-4.52-7.89l-22.89-13.34a9 9 0 0 0-9 0l-22.89 13.34a9.1 9.1 0 0 0-4.52 7.89zm73 0a9.1 9.1 0 0 0 4.52 7.89l22.89 13.34a9 9 0 0 0 9 0L351.34 444a9.1 9.1 0 0 0 4.52-7.89v-26.66a9.1 9.1 0 0 0-4.52-7.89l-22.89-13.34a9 9 0 0 0-9 0l-22.89 13.34a9.1 9.1 0 0 0-4.52 7.89zm73 0a9.1 9.1 0 0 0 4.52 7.89l22.89 13.34a9 9 0 0 0 9 0L424.34 444a9.1 9.1 0 0 0 4.52-7.89v-26.66a9.1 9.1 0 0 0-4.52-7.89l-22.89-13.34a9 9 0 0 0-9 0l-22.89 13.34a9.1 9.1 0 0 0-4.52 7.89zm-111 64a9.1 9.1 0 0 0 4.52 7.89l22.89 13.34a9 9 0 0 0 9 0L313.34 508a9.1 9.1 0 0 0 4.52-7.89v-26.66a9.1 9.1 0 0 0-4.52-7.89l-22.89-13.34a9 9 0 0 0-9 0l-22.89 13.34a9.1 9.1 0 0 0-4.52 7.89zm75-129a9.1 9.1 0 0 0 4.52 7.89l22.89 13.34a9 9 0 0 0 9 0L388.34 379a9.1 9.1 0 0 0 4.52-7.89v-26.66a9.1 9.1 0 0 0-4.52-7.89l-22.89-13.34a9 9 0 0 0-9 0l-22.89 13.34a9.1 9.1 0 0 0-4.52 7.89zm-110-64a9.1 9.1 0 0 0 4.52 7.89l22.89 13.34a9 9 0 0 0 9 0L278.34 315a9.1 9.1 0 0 0 4.52-7.89v-26.66a9.1 9.1 0 0 0-4.52-7.89l-22.89-13.34a9 9 0 0 0-9 0l-22.89 13.34a9.1 9.1 0 0 0-4.52 7.89zm146 0a9.1 9.1 0 0 0 4.52 7.89l22.89 13.34a9 9 0 0 0 9 0L424.34 315a9.1 9.1 0 0 0 4.52-7.89v-26.66a9.1 9.1 0 0 0-4.52-7.89l-22.89-13.34a9 9 0 0 0-9 0l-22.89 13.34a9.1 9.1 0 0 0-4.52 7.89zm-146-127a9.1 9.1 0 0 0 4.52 7.89l22.89 13.34a9 9 0 0 0 9 0L278.34 188a9.1 9.1 0 0 0 4.52-7.89v-26.66a9.1 9.1 0 0 0-4.52-7.89l-22.89-13.34a9 9 0 0 0-9 0l-22.89 13.34a9.1 9.1 0 0 0-4.52 7.89zm110 64a9.1 9.1 0 0 0 4.52 7.89l22.89 13.34a9 9 0 0 0 9 0L388.34 252a9.1 9.1 0 0 0 4.52-7.89v-26.66a9.1 9.1 0 0 0-4.52-7.89l-22.89-13.34a9 9 0 0 0-9 0l-22.89 13.34a9.1 9.1 0 0 0-4.52 7.89zM440 1578.12a9.1 9.1 0 0 0 4.52 7.89l22.89 13.34a9 9 0 0 0 9 0l22.93-13.35a9.1 9.1 0 0 0 4.52-7.89v-26.67a9.1 9.1 0 0 0-4.52-7.89l-22.89-13.34a9 9 0 0 0-9 0l-22.89 13.34a9.1 9.1 0 0 0-4.52 7.89zm73 0a9.1 9.1 0 0 0 4.52 7.89l22.89 13.34a9 9 0 0 0 9 0l22.93-13.35a9.1 9.1 0 0 0 4.52-7.89v-26.67a9.1 9.1 0 0 0-4.52-7.89l-22.89-13.34a9 9 0 0 0-9 0l-22.89 13.34a9.1 9.1 0 0 0-4.52 7.89zm-73-122a9.1 9.1 0 0 0 4.52 7.89l22.89 13.34a9 9 0 0 0 9 0l22.93-13.35a9.1 9.1 0 0 0 4.52-7.89v-26.67a9.1 9.1 0 0 0-4.52-7.89l-22.89-13.34a9 9 0 0 0-9 0l-22.89 13.34a9.1 9.1 0 0 0-4.52 7.89zm73 0a9.1 9.1 0 0 0 4.52 7.89l22.89 13.34a9 9 0 0 0 9 0l22.93-13.35a9.1 9.1 0 0 0 4.52-7.89v-26.67a9.1 9.1 0 0 0-4.52-7.89l-22.89-13.34a9 9 0 0 0-9 0l-22.89 13.34a9.1 9.1 0 0 0-4.52 7.89zm73 122a9.1 9.1 0 0 0 4.52 7.89l22.89 13.34a9 9 0 0 0 9 0l22.93-13.35a9.1 9.1 0 0 0 4.52-7.89v-26.67a9.1 9.1 0 0 0-4.52-7.89l-22.89-13.34a9 9 0 0 0-9 0l-22.89 13.34a9.1 9.1 0 0 0-4.52 7.89zm-146-249a9.1 9.1 0 0 0 4.52 7.89l22.89 13.34a9 9 0 0 0 9 0l22.93-13.35a9.1 9.1 0 0 0 4.52-7.89v-26.67a9.1 9.1 0 0 0-4.52-7.89l-22.89-13.34a9 9 0 0 0-9 0l-22.89 13.34a9.1 9.1 0 0 0-4.52 7.89zm73 0a9.1 9.1 0 0 0 4.52 7.89l22.89 13.34a9 9 0 0 0 9 0l22.93-13.35a9.1 9.1 0 0 0 4.52-7.89v-26.67a9.1 9.1 0 0 0-4.52-7.89l-22.89-13.34a9 9 0 0 0-9 0l-22.89 13.34a9.1 9.1 0 0 0-4.52 7.89zm73 0a9.1 9.1 0 0 0 4.52 7.89l22.89 13.34a9 9 0 0 0 9 0l22.93-13.35a9.1 9.1 0 0 0 4.52-7.89v-26.67a9.1 9.1 0 0 0-4.52-7.89l-22.89-13.34a9 9 0 0 0-9 0l-22.89 13.34a9.1 9.1 0 0 0-4.52 7.89zm-111 188a9.1 9.1 0 0 0 4.52 7.89l22.89 13.34a9 9 0 0 0 9 0l22.93-13.35a9.1 9.1 0 0 0 4.52-7.89v-26.67a9.1 9.1 0 0 0-4.52-7.89l-22.89-13.34a9 9 0 0 0-9 0l-22.89 13.34a9.1 9.1 0 0 0-4.52 7.89zm75 0a9.1 9.1 0 0 0 4.52 7.89l22.89 13.34a9 9 0 0 0 9 0l22.93-13.35a9.1 9.1 0 0 0 4.52-7.89v-26.67a9.1 9.1 0 0 0-4.52-7.89l-22.89-13.34a9 9 0 0 0-9 0l-22.89 13.34a9.1 9.1 0 0 0-4.52 7.89zm0-250a9.1 9.1 0 0 0 4.52 7.89l22.89 13.34a9 9 0 0 0 9 0l22.93-13.35a9.1 9.1 0 0 0 4.52-7.89v-26.67a9.1 9.1 0 0 0-4.52-7.89l-22.89-13.34a9 9 0 0 0-9 0l-22.89 13.34a9.1 9.1 0 0 0-4.52 7.89zm-75 126a9.1 9.1 0 0 0 4.52 7.89l22.89 13.34a9 9 0 0 0 9 0l22.93-13.35a9.1 9.1 0 0 0 4.52-7.89v-26.67a9.1 9.1 0 0 0-4.52-7.89l-22.89-13.34a9 9 0 0 0-9 0l-22.89 13.34a9.1 9.1 0 0 0-4.52 7.89zm-35-190a9.1 9.1 0 0 0 4.52 7.89l22.89 13.34a9 9 0 0 0 9 0l22.93-13.35a9.1 9.1 0 0 0 4.52-7.89v-26.67a9.1 9.1 0 0 0-4.52-7.89l-22.89-13.34a9 9 0 0 0-9 0l-22.89 13.34a9.1 9.1 0 0 0-4.52 7.89zm73 0a9.1 9.1 0 0 0 4.52 7.89l22.89 13.34a9 9 0 0 0 9 0l22.93-13.35a9.1 9.1 0 0 0 4.52-7.89v-26.67a9.1 9.1 0 0 0-4.52-7.89l-22.89-13.34a9 9 0 0 0-9 0l-22.89 13.34a9.1 9.1 0 0 0-4.52 7.89zm73 0a9.1 9.1 0 0 0 4.52 7.89l22.89 13.34a9 9 0 0 0 9 0l22.93-13.35a9.1 9.1 0 0 0 4.52-7.89v-26.67a9.1 9.1 0 0 0-4.52-7.89l-22.89-13.34a9 9 0 0 0-9 0l-22.89 13.34a9.1 9.1 0 0 0-4.52 7.89zm-146-127a9.1 9.1 0 0 0 4.52 7.89l22.89 13.34a9 9 0 0 0 9 0l22.93-13.35a9.1 9.1 0 0 0 4.52-7.89v-26.67a9.1 9.1 0 0 0-4.52-7.89l-22.89-13.34a9 9 0 0 0-9 0l-22.89 13.34a9.1 9.1 0 0 0-4.52 7.89zm0-129a9.1 9.1 0 0 0 4.52 7.89l22.89 13.34a9 9 0 0 0 9 0L499.34 955a9.1 9.1 0 0 0 4.52-7.89v-26.66a9.1 9.1 0 0 0-4.52-7.89l-22.89-13.34a9 9 0 0 0-9 0l-22.89 13.34a9.1 9.1 0 0 0-4.52 7.89zm73 0a9.1 9.1 0 0 0 4.52 7.89l22.89 13.34a9 9 0 0 0 9 0L572.34 955a9.1 9.1 0 0 0 4.52-7.89v-26.66a9.1 9.1 0 0 0-4.52-7.89l-22.89-13.34a9 9 0 0 0-9 0l-22.89 13.34a9.1 9.1 0 0 0-4.52 7.89zm73 0a9.1 9.1 0 0 0 4.52 7.89l22.89 13.34a9 9 0 0 0 9 0L645.34 955a9.1 9.1 0 0 0 4.52-7.89v-26.66a9.1 9.1 0 0 0-4.52-7.89l-22.89-13.34a9 9 0 0 0-9 0l-22.89 13.34a9.1 9.1 0 0 0-4.52 7.89zm-146-127a9.1 9.1 0 0 0 4.52 7.89l22.89 13.34a9 9 0 0 0 9 0L499.34 828a9.1 9.1 0 0 0 4.52-7.89v-26.66a9.1 9.1 0 0 0-4.52-7.89l-22.89-13.34a9 9 0 0 0-9 0l-22.89 13.34a9.1 9.1 0 0 0-4.52 7.89zm73 0a9.1 9.1 0 0 0 4.52 7.89l22.89 13.34a9 9 0 0 0 9 0L572.34 828a9.1 9.1 0 0 0 4.52-7.89v-26.66a9.1 9.1 0 0 0-4.52-7.89l-22.89-13.34a9 9 0 0 0-9 0l-22.89 13.34a9.1 9.1 0 0 0-4.52 7.89zm73-129a9.1 9.1 0 0 0 4.52 7.89l22.89 13.34a9 9 0 0 0 9 0L645.34 699a9.1 9.1 0 0 0 4.52-7.89v-26.66a9.1 9.1 0 0 0-4.52-7.89l-22.89-13.34a9 9 0 0 0-9 0l-22.89 13.34a9.1 9.1 0 0 0-4.52 7.89zm-146-127a9.1 9.1 0 0 0 4.52 7.89l22.89 13.34a9 9 0 0 0 9 0L499.34 572a9.1 9.1 0 0 0 4.52-7.89v-26.66a9.1 9.1 0 0 0-4.52-7.89l-22.89-13.34a9 9 0 0 0-9 0l-22.89 13.34a9.1 9.1 0 0 0-4.52 7.89zm73 0a9.1 9.1 0 0 0 4.52 7.89l22.89 13.34a9 9 0 0 0 9 0L572.34 572a9.1 9.1 0 0 0 4.52-7.89v-26.66a9.1 9.1 0 0 0-4.52-7.89l-22.89-13.34a9 9 0 0 0-9 0l-22.89 13.34a9.1 9.1 0 0 0-4.52 7.89zm73 0a9.1 9.1 0 0 0 4.52 7.89l22.89 13.34a9 9 0 0 0 9 0L645.34 572a9.1 9.1 0 0 0 4.52-7.89v-26.66a9.1 9.1 0 0 0-4.52-7.89l-22.89-13.34a9 9 0 0 0-9 0l-22.89 13.34a9.1 9.1 0 0 0-4.52 7.89zm-111 64a9.1 9.1 0 0 0 4.52 7.89l22.89 13.34a9 9 0 0 0 9 0L534.34 636a9.1 9.1 0 0 0 4.52-7.89v-26.66a9.1 9.1 0 0 0-4.52-7.89l-22.89-13.34a9 9 0 0 0-9 0l-22.89 13.34a9.1 9.1 0 0 0-4.52 7.89zm75 0a9.1 9.1 0 0 0 4.52 7.89l22.89 13.34a9 9 0 0 0 9 0L609.34 636a9.1 9.1 0 0 0 4.52-7.89v-26.66a9.1 9.1 0 0 0-4.52-7.89l-22.89-13.34a9 9 0 0 0-9 0l-22.89 13.34a9.1 9.1 0 0 0-4.52 7.89zm72 0a9.1 9.1 0 0 0 4.52 7.89l22.89 13.34a9 9 0 0 0 9 0L681.34 636a9.1 9.1 0 0 0 4.52-7.89v-26.66a9.1 9.1 0 0 0-4.52-7.89l-22.89-13.34a9 9 0 0 0-9 0l-22.89 13.34a9.1 9.1 0 0 0-4.52 7.89zm0-256a9.1 9.1 0 0 0 4.52 7.89l22.89 13.34a9 9 0 0 0 9 0L681.34 380a9.1 9.1 0 0 0 4.52-7.89v-26.66a9.1 9.1 0 0 0-4.52-7.89l-22.89-13.34a9 9 0 0 0-9 0l-22.89 13.34a9.1 9.1 0 0 0-4.52 7.89zm-72-129a9.1 9.1 0 0 0 4.52 7.89l22.89 13.34a9 9 0 0 0 9 0L609.34 251a9.1 9.1 0 0 0 4.52-7.89v-26.66a9.1 9.1 0 0 0-4.52-7.89l-22.89-13.34a9 9 0 0 0-9 0l-22.89 13.34a9.1 9.1 0 0 0-4.52 7.89zm-110-64a9.1 9.1 0 0 0 4.52 7.89l22.89 13.34a9 9 0 0 0 9 0L499.34 187a9.1 9.1 0 0 0 4.52-7.89v-26.66a9.1 9.1 0 0 0-4.52-7.89l-22.89-13.34a9 9 0 0 0-9 0l-22.89 13.34a9.1 9.1 0 0 0-4.52 7.89zm73 0a9.1 9.1 0 0 0 4.52 7.89l22.89 13.34a9 9 0 0 0 9 0L572.34 187a9.1 9.1 0 0 0 4.52-7.89v-26.66a9.1 9.1 0 0 0-4.52-7.89l-22.89-13.34a9 9 0 0 0-9 0l-22.89 13.34a9.1 9.1 0 0 0-4.52 7.89zm73 0a9.1 9.1 0 0 0 4.52 7.89l22.89 13.34a9 9 0 0 0 9 0L645.34 187a9.1 9.1 0 0 0 4.52-7.89v-26.66a9.1 9.1 0 0 0-4.52-7.89l-22.89-13.34a9 9 0 0 0-9 0l-22.89 13.34a9.1 9.1 0 0 0-4.52 7.89zm-146-127a9.1 9.1 0 0 0 4.52 7.88l22.89 13.34a9 9 0 0 0 9 0L499.34 60a9.1 9.1 0 0 0 4.52-7.89V25.45a9.1 9.1 0 0 0-4.52-7.89L476.45 4.22a9 9 0 0 0-9 0l-22.93 13.34a9.1 9.1 0 0 0-4.52 7.89zm73 0a9.1 9.1 0 0 0 4.52 7.88l22.89 13.34a9 9 0 0 0 9 0L572.34 60a9.1 9.1 0 0 0 4.52-7.89V25.45a9.1 9.1 0 0 0-4.52-7.89L549.45 4.22a9 9 0 0 0-9 0l-22.93 13.34a9.1 9.1 0 0 0-4.52 7.89zm73 0a9.1 9.1 0 0 0 4.52 7.88l22.89 13.34a9 9 0 0 0 9 0L645.34 60a9.1 9.1 0 0 0 4.52-7.89V25.45a9.1 9.1 0 0 0-4.52-7.89L622.45 4.22a9 9 0 0 0-9 0l-22.93 13.34a9.1 9.1 0 0 0-4.52 7.89zm185 64a9.1 9.1 0 0 0 4.52 7.89l22.89 13.34a9 9 0 0 0 9 0L830.34 124a9.1 9.1 0 0 0 4.52-7.89V89.45a9.1 9.1 0 0 0-4.52-7.89l-22.89-13.34a9 9 0 0 0-9 0l-22.93 13.34a9.1 9.1 0 0 0-4.52 7.89zm72 0a9.1 9.1 0 0 0 4.52 7.89l22.89 13.34a9 9 0 0 0 9 0L902.34 124a9.1 9.1 0 0 0 4.52-7.89V89.45a9.1 9.1 0 0 0-4.52-7.89l-22.89-13.34a9 9 0 0 0-9 0l-22.93 13.34a9.1 9.1 0 0 0-4.52 7.89zm-184 1467a9.1 9.1 0 0 0 4.52 7.89l22.89 13.34a9 9 0 0 0 9 0l22.93-13.35a9.1 9.1 0 0 0 4.52-7.89v-26.67a9.1 9.1 0 0 0-4.52-7.89l-22.89-13.34a9 9 0 0 0-9 0l-22.89 13.34a9.1 9.1 0 0 0-4.52 7.89zm146 0a9.1 9.1 0 0 0 4.52 7.89l22.89 13.34a9 9 0 0 0 9 0l22.93-13.35a9.1 9.1 0 0 0 4.52-7.89v-26.67a9.1 9.1 0 0 0-4.52-7.89l-22.89-13.34a9 9 0 0 0-9 0l-22.89 13.34a9.1 9.1 0 0 0-4.52 7.89zm-146-127a9.1 9.1 0 0 0 4.52 7.89l22.89 13.34a9 9 0 0 0 9 0l22.93-13.35a9.1 9.1 0 0 0 4.52-7.89v-26.67a9.1 9.1 0 0 0-4.52-7.89l-22.89-13.34a9 9 0 0 0-9 0l-22.89 13.34a9.1 9.1 0 0 0-4.52 7.89zm35-62a9.1 9.1 0 0 0 4.52 7.89l22.89 13.34a9 9 0 0 0 9 0l22.93-13.35a9.1 9.1 0 0 0 4.52-7.89v-26.67a9.1 9.1 0 0 0-4.52-7.89l-22.89-13.34a9 9 0 0 0-9 0l-22.89 13.34a9.1 9.1 0 0 0-4.52 7.89zm75 0a9.1 9.1 0 0 0 4.52 7.89l22.89 13.34a9 9 0 0 0 9 0l22.93-13.35a9.1 9.1 0 0 0 4.52-7.89v-26.67a9.1 9.1 0 0 0-4.52-7.89l-22.89-13.34a9 9 0 0 0-9 0l-22.89 13.34a9.1 9.1 0 0 0-4.52 7.89zm-75 126a9.1 9.1 0 0 0 4.52 7.89l22.89 13.34a9 9 0 0 0 9 0l22.93-13.35a9.1 9.1 0 0 0 4.52-7.89v-26.67a9.1 9.1 0 0 0-4.52-7.89l-22.89-13.34a9 9 0 0 0-9 0l-22.89 13.34a9.1 9.1 0 0 0-4.52 7.89zm75 0a9.1 9.1 0 0 0 4.52 7.89l22.89 13.34a9 9 0 0 0 9 0l22.93-13.35a9.1 9.1 0 0 0 4.52-7.89v-26.67a9.1 9.1 0 0 0-4.52-7.89l-22.89-13.34a9 9 0 0 0-9 0l-22.89 13.34a9.1 9.1 0 0 0-4.52 7.89zm72 0a9.1 9.1 0 0 0 4.52 7.89l22.89 13.34a9 9 0 0 0 9 0l22.93-13.35a9.1 9.1 0 0 0 4.52-7.89v-26.67a9.1 9.1 0 0 0-4.52-7.89l-22.89-13.34a9 9 0 0 0-9 0l-22.89 13.34a9.1 9.1 0 0 0-4.52 7.89zm-182-190a9.1 9.1 0 0 0 4.52 7.89l22.89 13.34a9 9 0 0 0 9 0l22.93-13.35a9.1 9.1 0 0 0 4.52-7.89v-26.67a9.1 9.1 0 0 0-4.52-7.89l-22.89-13.34a9 9 0 0 0-9 0l-22.89 13.34a9.1 9.1 0 0 0-4.52 7.89zm73 0a9.1 9.1 0 0 0 4.52 7.89l22.89 13.34a9 9 0 0 0 9 0l22.93-13.35a9.1 9.1 0 0 0 4.52-7.89v-26.67a9.1 9.1 0 0 0-4.52-7.89l-22.89-13.34a9 9 0 0 0-9 0l-22.89 13.34a9.1 9.1 0 0 0-4.52 7.89zm73 0a9.1 9.1 0 0 0 4.52 7.89l22.89 13.34a9 9 0 0 0 9 0l22.93-13.35a9.1 9.1 0 0 0 4.52-7.89v-26.67a9.1 9.1 0 0 0-4.52-7.89l-22.89-13.34a9 9 0 0 0-9 0l-22.89 13.34a9.1 9.1 0 0 0-4.52 7.89zm-146-127a9.1 9.1 0 0 0 4.52 7.89l22.89 13.34a9 9 0 0 0 9 0l22.93-13.35a9.1 9.1 0 0 0 4.52-7.89v-26.67a9.1 9.1 0 0 0-4.52-7.89l-22.89-13.34a9 9 0 0 0-9 0l-22.89 13.34a9.1 9.1 0 0 0-4.52 7.89zm73 0a9.1 9.1 0 0 0 4.52 7.89l22.89 13.34a9 9 0 0 0 9 0l22.93-13.35a9.1 9.1 0 0 0 4.52-7.89v-26.67a9.1 9.1 0 0 0-4.52-7.89l-22.89-13.34a9 9 0 0 0-9 0l-22.89 13.34a9.1 9.1 0 0 0-4.52 7.89zM878 1577.12a9.1 9.1 0 0 0 4.52 7.89l22.89 13.34a9 9 0 0 0 9 0l22.93-13.35a9.1 9.1 0 0 0 4.52-7.89v-26.67a9.1 9.1 0 0 0-4.52-7.89l-22.89-13.34a9 9 0 0 0-9 0l-22.89 13.34a9.1 9.1 0 0 0-4.52 7.89zm73 0a9.1 9.1 0 0 0 4.52 7.89l22.89 13.34a9 9 0 0 0 9 0l22.89-13.34a9.1 9.1 0 0 0 4.52-7.89v-26.67a9.1 9.1 0 0 0-4.52-7.89l-22.89-13.34a9 9 0 0 0-9 0l-22.89 13.34a9.1 9.1 0 0 0-4.52 7.89zm-73-122a9.1 9.1 0 0 0 4.52 7.89l22.89 13.34a9 9 0 0 0 9 0l22.93-13.35a9.1 9.1 0 0 0 4.52-7.89v-26.67a9.1 9.1 0 0 0-4.52-7.89l-22.89-13.34a9 9 0 0 0-9 0l-22.89 13.34a9.1 9.1 0 0 0-4.52 7.89zm73 0a9.1 9.1 0 0 0 4.52 7.89l22.89 13.34a9 9 0 0 0 9 0l22.89-13.34a9.1 9.1 0 0 0 4.52-7.89v-26.67a9.1 9.1 0 0 0-4.52-7.89l-22.89-13.34a9 9 0 0 0-9 0l-22.89 13.34a9.1 9.1 0 0 0-4.52 7.89zm73 122a9.1 9.1 0 0 0 4.52 7.89l22.89 13.34a9 9 0 0 0 9 0l22.89-13.34a9.1 9.1 0 0 0 4.52-7.89v-26.67a9.1 9.1 0 0 0-4.52-7.89l-22.89-13.34a9 9 0 0 0-9 0l-22.89 13.34a9.1 9.1 0 0 0-4.52 7.89zm0-122a9.1 9.1 0 0 0 4.52 7.89l22.89 13.34a9 9 0 0 0 9 0l22.89-13.34a9.1 9.1 0 0 0 4.52-7.89v-26.67a9.1 9.1 0 0 0-4.52-7.89l-22.89-13.34a9 9 0 0 0-9 0l-22.89 13.34a9.1 9.1 0 0 0-4.52 7.89zm-146-127a9.1 9.1 0 0 0 4.52 7.89l22.89 13.34a9 9 0 0 0 9 0l22.93-13.35a9.1 9.1 0 0 0 4.52-7.89v-26.67a9.1 9.1 0 0 0-4.52-7.89l-22.89-13.34a9 9 0 0 0-9 0l-22.89 13.34a9.1 9.1 0 0 0-4.52 7.89zm73 0a9.1 9.1 0 0 0 4.52 7.89l22.89 13.34a9 9 0 0 0 9 0l22.89-13.34a9.1 9.1 0 0 0 4.52-7.89v-26.67a9.1 9.1 0 0 0-4.52-7.89l-22.89-13.34a9 9 0 0 0-9 0l-22.89 13.34a9.1 9.1 0 0 0-4.52 7.89zm73 0a9.1 9.1 0 0 0 4.52 7.89l22.89 13.34a9 9 0 0 0 9 0l22.89-13.34a9.1 9.1 0 0 0 4.52-7.89v-26.67a9.1 9.1 0 0 0-4.52-7.89l-22.89-13.34a9 9 0 0 0-9 0l-22.89 13.34a9.1 9.1 0 0 0-4.52 7.89zm-111 188a9.1 9.1 0 0 0 4.52 7.89l22.89 13.34a9 9 0 0 0 9 0l22.93-13.35a9.1 9.1 0 0 0 4.52-7.89v-26.67a9.1 9.1 0 0 0-4.52-7.89l-22.89-13.34a9 9 0 0 0-9 0l-22.89 13.34a9.1 9.1 0 0 0-4.52 7.89zm75 0a9.1 9.1 0 0 0 4.52 7.89l22.89 13.34a9 9 0 0 0 9 0l22.89-13.34a9.1 9.1 0 0 0 4.52-7.89v-26.67a9.1 9.1 0 0 0-4.52-7.89l-22.89-13.34a9 9 0 0 0-9 0l-22.89 13.34a9.1 9.1 0 0 0-4.52 7.89zm-75-250a9.1 9.1 0 0 0 4.52 7.89l22.89 13.34a9 9 0 0 0 9 0l22.93-13.35a9.1 9.1 0 0 0 4.52-7.89v-26.67a9.1 9.1 0 0 0-4.52-7.89l-22.89-13.34a9 9 0 0 0-9 0l-22.89 13.34a9.1 9.1 0 0 0-4.52 7.89zm75 0a9.1 9.1 0 0 0 4.52 7.89l22.89 13.34a9 9 0 0 0 9 0l22.89-13.34a9.1 9.1 0 0 0 4.52-7.89v-26.67a9.1 9.1 0 0 0-4.52-7.89l-22.89-13.34a9 9 0 0 0-9 0l-22.89 13.34a9.1 9.1 0 0 0-4.52 7.89zm-75 126a9.1 9.1 0 0 0 4.52 7.89l22.89 13.34a9 9 0 0 0 9 0l22.93-13.35a9.1 9.1 0 0 0 4.52-7.89v-26.67a9.1 9.1 0 0 0-4.52-7.89l-22.89-13.34a9 9 0 0 0-9 0l-22.89 13.34a9.1 9.1 0 0 0-4.52 7.89zm75 0a9.1 9.1 0 0 0 4.52 7.89l22.89 13.34a9 9 0 0 0 9 0l22.89-13.34a9.1 9.1 0 0 0 4.52-7.89v-26.67a9.1 9.1 0 0 0-4.52-7.89l-22.89-13.34a9 9 0 0 0-9 0l-22.89 13.34a9.1 9.1 0 0 0-4.52 7.89zm72.14-.46a9.13 9.13 0 0 0 4.52 7.89l22.89 13.34a9 9 0 0 0 9 0l22.89-13.34a9.13 9.13 0 0 0 4.52-7.89V1365a9.13 9.13 0 0 0-4.52-7.9l-22.89-13.33a9 9 0 0 0-9 0l-22.89 13.33a9.13 9.13 0 0 0-4.52 7.9zM878 1202.12a9.1 9.1 0 0 0 4.52 7.89l22.89 13.34a9 9 0 0 0 9 0l22.93-13.35a9.1 9.1 0 0 0 4.52-7.89v-26.67a9.1 9.1 0 0 0-4.52-7.89l-22.89-13.34a9 9 0 0 0-9 0l-22.89 13.34a9.1 9.1 0 0 0-4.52 7.89zm73 0a9.1 9.1 0 0 0 4.52 7.89l22.89 13.34a9 9 0 0 0 9 0l22.89-13.34a9.1 9.1 0 0 0 4.52-7.89v-26.67a9.1 9.1 0 0 0-4.52-7.89l-22.89-13.34a9 9 0 0 0-9 0l-22.89 13.34a9.1 9.1 0 0 0-4.52 7.89zm73 0a9.1 9.1 0 0 0 4.52 7.89l22.89 13.34a9 9 0 0 0 9 0l22.89-13.34a9.1 9.1 0 0 0 4.52-7.89v-26.67a9.1 9.1 0 0 0-4.52-7.89l-22.89-13.34a9 9 0 0 0-9 0l-22.89 13.34a9.1 9.1 0 0 0-4.52 7.89zm-146-127a9.1 9.1 0 0 0 4.52 7.89l22.89 13.34a9 9 0 0 0 9 0l22.93-13.35a9.1 9.1 0 0 0 4.52-7.89v-26.67a9.1 9.1 0 0 0-4.52-7.89l-22.89-13.34a9 9 0 0 0-9 0l-22.89 13.34a9.1 9.1 0 0 0-4.52 7.89zm73 0a9.1 9.1 0 0 0 4.52 7.89l22.89 13.34a9 9 0 0 0 9 0l22.89-13.34a9.1 9.1 0 0 0 4.52-7.89v-26.67a9.1 9.1 0 0 0-4.52-7.89l-22.89-13.34a9 9 0 0 0-9 0l-22.89 13.34a9.1 9.1 0 0 0-4.52 7.89zm73 0a9.1 9.1 0 0 0 4.52 7.89l22.89 13.34a9 9 0 0 0 9 0l22.89-13.34a9.1 9.1 0 0 0 4.52-7.89v-26.67a9.1 9.1 0 0 0-4.52-7.89l-22.89-13.34a9 9 0 0 0-9 0l-22.89 13.34a9.1 9.1 0 0 0-4.52 7.89zm-111 64a9.1 9.1 0 0 0 4.52 7.89l22.89 13.34a9 9 0 0 0 9 0l22.93-13.35a9.1 9.1 0 0 0 4.52-7.89v-26.67a9.1 9.1 0 0 0-4.52-7.89l-22.89-13.34a9 9 0 0 0-9 0l-22.89 13.34a9.1 9.1 0 0 0-4.52 7.89zm75 0a9.1 9.1 0 0 0 4.52 7.89l22.89 13.34a9 9 0 0 0 9 0l22.89-13.34a9.1 9.1 0 0 0 4.52-7.89v-26.67a9.1 9.1 0 0 0-4.52-7.89l-22.89-13.34a9 9 0 0 0-9 0l-22.89 13.34a9.1 9.1 0 0 0-4.52 7.89zm72 0a9.1 9.1 0 0 0 4.52 7.89l22.89 13.34a9 9 0 0 0 9 0l22.89-13.34a9.1 9.1 0 0 0 4.52-7.89v-26.67a9.1 9.1 0 0 0-4.52-7.89l-22.89-13.34a9 9 0 0 0-9 0l-22.89 13.34a9.1 9.1 0 0 0-4.52 7.89zm-147-129a9.1 9.1 0 0 0 4.52 7.89l22.89 13.34a9 9 0 0 0 9 0l22.93-13.35a9.1 9.1 0 0 0 4.52-7.89v-26.66a9.1 9.1 0 0 0-4.52-7.89l-22.89-13.34a9 9 0 0 0-9 0l-22.89 13.34a9.1 9.1 0 0 0-4.52 7.89zm75 0a9.1 9.1 0 0 0 4.52 7.89l22.89 13.34a9 9 0 0 0 9 0l22.89-13.34a9.1 9.1 0 0 0 4.52-7.89v-26.67a9.1 9.1 0 0 0-4.52-7.89l-22.89-13.34a9 9 0 0 0-9 0l-22.89 13.34a9.1 9.1 0 0 0-4.52 7.89zm-110-64a9.1 9.1 0 0 0 4.52 7.89l22.89 13.34a9 9 0 0 0 9 0L937.34 954a9.1 9.1 0 0 0 4.52-7.89v-26.66a9.1 9.1 0 0 0-4.52-7.89l-22.89-13.34a9 9 0 0 0-9 0l-22.89 13.34a9.1 9.1 0 0 0-4.52 7.89zm73 0a9.1 9.1 0 0 0 4.52 7.89l22.89 13.34a9 9 0 0 0 9 0l22.93-13.35a9.1 9.1 0 0 0 4.52-7.89v-26.66a9.1 9.1 0 0 0-4.52-7.89l-22.89-13.34a9 9 0 0 0-9 0l-22.89 13.34a9.1 9.1 0 0 0-4.52 7.89zm73 0a9.1 9.1 0 0 0 4.52 7.89l22.89 13.34a9 9 0 0 0 9 0l22.93-13.35a9.1 9.1 0 0 0 4.52-7.89v-26.66a9.1 9.1 0 0 0-4.52-7.89l-22.89-13.34a9 9 0 0 0-9 0l-22.89 13.34a9.1 9.1 0 0 0-4.52 7.89zm-146-127a9.1 9.1 0 0 0 4.52 7.89l22.89 13.34a9 9 0 0 0 9 0L937.34 827a9.1 9.1 0 0 0 4.52-7.89v-26.66a9.1 9.1 0 0 0-4.52-7.89l-22.89-13.34a9 9 0 0 0-9 0l-22.89 13.34a9.1 9.1 0 0 0-4.52 7.89zm73 0a9.1 9.1 0 0 0 4.52 7.89l22.89 13.34a9 9 0 0 0 9 0l22.93-13.35a9.1 9.1 0 0 0 4.52-7.89v-26.66a9.1 9.1 0 0 0-4.52-7.89l-22.89-13.34a9 9 0 0 0-9 0l-22.89 13.34a9.1 9.1 0 0 0-4.52 7.89zm73 0a9.1 9.1 0 0 0 4.52 7.89l22.89 13.34a9 9 0 0 0 9 0l22.93-13.35a9.1 9.1 0 0 0 4.52-7.89v-26.66a9.1 9.1 0 0 0-4.52-7.89l-22.89-13.34a9 9 0 0 0-9 0l-22.89 13.34a9.1 9.1 0 0 0-4.52 7.89zm-111 64a9.1 9.1 0 0 0 4.52 7.89l22.89 13.34a9 9 0 0 0 9 0L972.34 891a9.1 9.1 0 0 0 4.52-7.89v-26.66a9.1 9.1 0 0 0-4.52-7.89l-22.89-13.34a9 9 0 0 0-9 0l-22.89 13.34a9.1 9.1 0 0 0-4.52 7.89zm75 0a9.1 9.1 0 0 0 4.52 7.89l22.89 13.34a9 9 0 0 0 9 0l22.93-13.35a9.1 9.1 0 0 0 4.52-7.89v-26.66a9.1 9.1 0 0 0-4.52-7.89l-22.89-13.34a9 9 0 0 0-9 0l-22.89 13.34a9.1 9.1 0 0 0-4.52 7.89zm72 0a9.1 9.1 0 0 0 4.52 7.89l22.89 13.34a9 9 0 0 0 9 0l22.93-13.35a9.1 9.1 0 0 0 4.52-7.89v-26.66a9.1 9.1 0 0 0-4.52-7.89l-22.89-13.34a9 9 0 0 0-9 0l-22.89 13.34a9.1 9.1 0 0 0-4.52 7.89zm-147-129a9.1 9.1 0 0 0 4.52 7.89l22.89 13.34a9 9 0 0 0 9 0L972.34 762a9.1 9.1 0 0 0 4.52-7.89v-26.66a9.1 9.1 0 0 0-4.52-7.89l-22.89-13.34a9 9 0 0 0-9 0l-22.89 13.34a9.1 9.1 0 0 0-4.52 7.89zm75 0a9.1 9.1 0 0 0 4.52 7.89l22.89 13.34a9 9 0 0 0 9 0l22.93-13.35a9.1 9.1 0 0 0 4.52-7.89v-26.66a9.1 9.1 0 0 0-4.52-7.89l-22.89-13.34a9 9 0 0 0-9 0l-22.89 13.34a9.1 9.1 0 0 0-4.52 7.89zm-110-64a9.1 9.1 0 0 0 4.52 7.89l22.89 13.34a9 9 0 0 0 9 0L937.34 698a9.1 9.1 0 0 0 4.52-7.89v-26.66a9.1 9.1 0 0 0-4.52-7.89l-22.89-13.34a9 9 0 0 0-9 0l-22.89 13.34a9.1 9.1 0 0 0-4.52 7.89zm73 0a9.1 9.1 0 0 0 4.52 7.89l22.89 13.34a9 9 0 0 0 9 0l22.93-13.35a9.1 9.1 0 0 0 4.52-7.89v-26.66a9.1 9.1 0 0 0-4.52-7.89l-22.89-13.34a9 9 0 0 0-9 0l-22.89 13.34a9.1 9.1 0 0 0-4.52 7.89zm73 0a9.1 9.1 0 0 0 4.52 7.89l22.89 13.34a9 9 0 0 0 9 0l22.93-13.35a9.1 9.1 0 0 0 4.52-7.89v-26.66a9.1 9.1 0 0 0-4.52-7.89l-22.89-13.34a9 9 0 0 0-9 0l-22.89 13.34a9.1 9.1 0 0 0-4.52 7.89zm-146-127a9.1 9.1 0 0 0 4.52 7.89l22.89 13.34a9 9 0 0 0 9 0L937.34 571a9.1 9.1 0 0 0 4.52-7.89v-26.66a9.1 9.1 0 0 0-4.52-7.89l-22.89-13.34a9 9 0 0 0-9 0l-22.89 13.34a9.1 9.1 0 0 0-4.52 7.89zm73 0a9.1 9.1 0 0 0 4.52 7.89l22.89 13.34a9 9 0 0 0 9 0l22.93-13.35a9.1 9.1 0 0 0 4.52-7.89v-26.66a9.1 9.1 0 0 0-4.52-7.89l-22.89-13.34a9 9 0 0 0-9 0l-22.89 13.34a9.1 9.1 0 0 0-4.52 7.89zm73 0a9.1 9.1 0 0 0 4.52 7.89l22.89 13.34a9 9 0 0 0 9 0l22.93-13.35a9.1 9.1 0 0 0 4.52-7.89v-26.66a9.1 9.1 0 0 0-4.52-7.89l-22.89-13.34a9 9 0 0 0-9 0l-22.89 13.34a9.1 9.1 0 0 0-4.52 7.89zm-111 64a9.1 9.1 0 0 0 4.52 7.89l22.89 13.34a9 9 0 0 0 9 0L972.34 635a9.1 9.1 0 0 0 4.52-7.89v-26.66a9.1 9.1 0 0 0-4.52-7.89l-22.89-13.34a9 9 0 0 0-9 0l-22.89 13.34a9.1 9.1 0 0 0-4.52 7.89zm75 0a9.1 9.1 0 0 0 4.52 7.89l22.89 13.34a9 9 0 0 0 9 0l22.93-13.35a9.1 9.1 0 0 0 4.52-7.89v-26.66a9.1 9.1 0 0 0-4.52-7.89l-22.89-13.34a9 9 0 0 0-9 0l-22.89 13.34a9.1 9.1 0 0 0-4.52 7.89zm72 0a9.1 9.1 0 0 0 4.52 7.89l22.89 13.34a9 9 0 0 0 9 0l22.93-13.35a9.1 9.1 0 0 0 4.52-7.89v-26.66a9.1 9.1 0 0 0-4.52-7.89l-22.89-13.34a9 9 0 0 0-9 0l-22.89 13.34a9.1 9.1 0 0 0-4.52 7.89zm-147-129a9.1 9.1 0 0 0 4.52 7.89l22.89 13.34a9 9 0 0 0 9 0L972.34 506a9.1 9.1 0 0 0 4.52-7.89v-26.66a9.1 9.1 0 0 0-4.52-7.89l-22.89-13.34a9 9 0 0 0-9 0l-22.89 13.34a9.1 9.1 0 0 0-4.52 7.89zm75 0a9.1 9.1 0 0 0 4.52 7.89l22.89 13.34a9 9 0 0 0 9 0l22.93-13.35a9.1 9.1 0 0 0 4.52-7.89v-26.66a9.1 9.1 0 0 0-4.52-7.89l-22.89-13.34a9 9 0 0 0-9 0l-22.89 13.34a9.1 9.1 0 0 0-4.52 7.89zm-110-64a9.1 9.1 0 0 0 4.52 7.89l22.89 13.34a9 9 0 0 0 9 0L937.34 442a9.1 9.1 0 0 0 4.52-7.89v-26.66a9.1 9.1 0 0 0-4.52-7.89l-22.89-13.34a9 9 0 0 0-9 0l-22.89 13.34a9.1 9.1 0 0 0-4.52 7.89zm73 0a9.1 9.1 0 0 0 4.52 7.89l22.89 13.34a9 9 0 0 0 9 0l22.93-13.35a9.1 9.1 0 0 0 4.52-7.89v-26.66a9.1 9.1 0 0 0-4.52-7.89l-22.89-13.34a9 9 0 0 0-9 0l-22.89 13.34a9.1 9.1 0 0 0-4.52 7.89zm73 0a9.1 9.1 0 0 0 4.52 7.89l22.89 13.34a9 9 0 0 0 9 0l22.93-13.35a9.1 9.1 0 0 0 4.52-7.89v-26.66a9.1 9.1 0 0 0-4.52-7.89l-22.89-13.34a9 9 0 0 0-9 0l-22.89 13.34a9.1 9.1 0 0 0-4.52 7.89zm-146-127a9.1 9.1 0 0 0 4.52 7.89l22.89 13.34a9 9 0 0 0 9 0L937.34 315a9.1 9.1 0 0 0 4.52-7.89v-26.66a9.1 9.1 0 0 0-4.52-7.89l-22.89-13.34a9 9 0 0 0-9 0l-22.89 13.34a9.1 9.1 0 0 0-4.52 7.89zm73 0a9.1 9.1 0 0 0 4.52 7.89l22.89 13.34a9 9 0 0 0 9 0l22.93-13.35a9.1 9.1 0 0 0 4.52-7.89v-26.66a9.1 9.1 0 0 0-4.52-7.89l-22.89-13.34a9 9 0 0 0-9 0l-22.89 13.34a9.1 9.1 0 0 0-4.52 7.89zm73 0a9.1 9.1 0 0 0 4.52 7.89l22.89 13.34a9 9 0 0 0 9 0l22.93-13.35a9.1 9.1 0 0 0 4.52-7.89v-26.66a9.1 9.1 0 0 0-4.52-7.89l-22.89-13.34a9 9 0 0 0-9 0l-22.89 13.34a9.1 9.1 0 0 0-4.52 7.89zm-111 64a9.1 9.1 0 0 0 4.52 7.89l22.89 13.34a9 9 0 0 0 9 0L972.34 379a9.1 9.1 0 0 0 4.52-7.89v-26.66a9.1 9.1 0 0 0-4.52-7.89l-22.89-13.34a9 9 0 0 0-9 0l-22.89 13.34a9.1 9.1 0 0 0-4.52 7.89zm75 0a9.1 9.1 0 0 0 4.52 7.89l22.89 13.34a9 9 0 0 0 9 0l22.93-13.35a9.1 9.1 0 0 0 4.52-7.89v-26.66a9.1 9.1 0 0 0-4.52-7.89l-22.89-13.34a9 9 0 0 0-9 0l-22.89 13.34a9.1 9.1 0 0 0-4.52 7.89zm72 0a9.1 9.1 0 0 0 4.52 7.89l22.89 13.34a9 9 0 0 0 9 0l22.93-13.35a9.1 9.1 0 0 0 4.52-7.89v-26.66a9.1 9.1 0 0 0-4.52-7.89l-22.89-13.34a9 9 0 0 0-9 0l-22.89 13.34a9.1 9.1 0 0 0-4.52 7.89zm-147-129a9.1 9.1 0 0 0 4.52 7.89l22.89 13.34a9 9 0 0 0 9 0L972.34 250a9.1 9.1 0 0 0 4.52-7.89v-26.66a9.1 9.1 0 0 0-4.52-7.89l-22.89-13.34a9 9 0 0 0-9 0l-22.89 13.34a9.1 9.1 0 0 0-4.52 7.89zm75 0a9.1 9.1 0 0 0 4.52 7.89l22.89 13.34a9 9 0 0 0 9 0l22.93-13.35a9.1 9.1 0 0 0 4.52-7.89v-26.66a9.1 9.1 0 0 0-4.52-7.89l-22.89-13.34a9 9 0 0 0-9 0l-22.89 13.34a9.1 9.1 0 0 0-4.52 7.89zm-110-64a9.1 9.1 0 0 0 4.52 7.89l22.89 13.34a9 9 0 0 0 9 0L937.34 186a9.1 9.1 0 0 0 4.52-7.89v-26.66a9.1 9.1 0 0 0-4.52-7.89l-22.89-13.34a9 9 0 0 0-9 0l-22.89 13.34a9.1 9.1 0 0 0-4.52 7.89zm73 0a9.1 9.1 0 0 0 4.52 7.89l22.89 13.34a9 9 0 0 0 9 0l22.93-13.35a9.1 9.1 0 0 0 4.52-7.89v-26.66a9.1 9.1 0 0 0-4.52-7.89l-22.89-13.34a9 9 0 0 0-9 0l-22.89 13.34a9.1 9.1 0 0 0-4.52 7.89zm73 0a9.1 9.1 0 0 0 4.52 7.89l22.89 13.34a9 9 0 0 0 9 0l22.93-13.35a9.1 9.1 0 0 0 4.52-7.89v-26.66a9.1 9.1 0 0 0-4.52-7.89l-22.89-13.34a9 9 0 0 0-9 0l-22.89 13.34a9.1 9.1 0 0 0-4.52 7.89zm-146-127a9.1 9.1 0 0 0 4.52 7.88l22.89 13.34a9 9 0 0 0 9 0L937.34 59a9.1 9.1 0 0 0 4.52-7.89V24.45a9.1 9.1 0 0 0-4.52-7.89L914.45 3.22a9 9 0 0 0-9 0l-22.93 13.34a9.1 9.1 0 0 0-4.52 7.89zm73 0a9.1 9.1 0 0 0 4.52 7.88l22.89 13.34a9 9 0 0 0 9 0L1010.34 59a9.1 9.1 0 0 0 4.52-7.89V24.45a9.1 9.1 0 0 0-4.52-7.89L987.45 3.22a9 9 0 0 0-9 0l-22.93 13.34a9.1 9.1 0 0 0-4.52 7.89zm73 0a9.1 9.1 0 0 0 4.52 7.89l22.89 13.34a9 9 0 0 0 9 0L1083.34 59a9.1 9.1 0 0 0 4.52-7.89V24.45a9.1 9.1 0 0 0-4.52-7.89l-22.89-13.34a9 9 0 0 0-9 0l-22.89 13.34a9.1 9.1 0 0 0-4.52 7.89zm-111 64a9.1 9.1 0 0 0 4.52 7.89l22.89 13.34a9 9 0 0 0 9 0L972.34 123a9.1 9.1 0 0 0 4.52-7.89V88.45a9.1 9.1 0 0 0-4.52-7.89l-22.89-13.34a9 9 0 0 0-9 0l-22.93 13.34a9.1 9.1 0 0 0-4.52 7.89zm75 0a9.1 9.1 0 0 0 4.52 7.89l22.89 13.34a9 9 0 0 0 9 0l22.93-13.35a9.1 9.1 0 0 0 4.52-7.89V88.45a9.1 9.1 0 0 0-4.52-7.89l-22.89-13.34a9 9 0 0 0-9 0l-22.93 13.34a9.1 9.1 0 0 0-4.52 7.89zm72 0a9.1 9.1 0 0 0 4.52 7.89l22.89 13.34a9 9 0 0 0 9 0l22.93-13.35a9.1 9.1 0 0 0 4.52-7.89V88.45a9.1 9.1 0 0 0-4.52-7.89l-22.89-13.34a9 9 0 0 0-9 0l-22.89 13.34a9.1 9.1 0 0 0-4.52 7.89zm39-64a9.1 9.1 0 0 0 4.52 7.89l22.89 13.34a9 9 0 0 0 9 0L1158.34 59a9.1 9.1 0 0 0 4.52-7.89V24.45a9.1 9.1 0 0 0-4.52-7.89l-22.89-13.34a9 9 0 0 0-9 0l-22.89 13.34a9.1 9.1 0 0 0-4.52 7.89zm73 0a9.1 9.1 0 0 0 4.52 7.89l22.89 13.34a9 9 0 0 0 9 0L1231.34 59a9.1 9.1 0 0 0 4.52-7.89V24.45a9.1 9.1 0 0 0-4.52-7.89l-22.89-13.34a9 9 0 0 0-9 0l-22.89 13.34a9.1 9.1 0 0 0-4.52 7.89zm73 0a9.1 9.1 0 0 0 4.52 7.89l22.89 13.34a9 9 0 0 0 9 0L1304.34 59a9.1 9.1 0 0 0 4.52-7.89V24.45a9.1 9.1 0 0 0-4.52-7.89l-22.89-13.34a9 9 0 0 0-9 0l-22.89 13.34a9.1 9.1 0 0 0-4.52 7.89zm-111 64a9.1 9.1 0 0 0 4.52 7.89l22.89 13.34a9 9 0 0 0 9 0l22.93-13.35a9.1 9.1 0 0 0 4.52-7.89V88.45a9.1 9.1 0 0 0-4.52-7.89l-22.89-13.34a9 9 0 0 0-9 0l-22.89 13.34a9.1 9.1 0 0 0-4.52 7.89zm75 0a9.1 9.1 0 0 0 4.52 7.89l22.89 13.34a9 9 0 0 0 9 0l22.93-13.35a9.1 9.1 0 0 0 4.52-7.89V88.45a9.1 9.1 0 0 0-4.52-7.89l-22.89-13.34a9 9 0 0 0-9 0l-22.89 13.34a9.1 9.1 0 0 0-4.52 7.89zm72 0a9.1 9.1 0 0 0 4.52 7.89l22.89 13.34a9 9 0 0 0 9 0l22.93-13.35a9.1 9.1 0 0 0 4.52-7.89V88.45a9.1 9.1 0 0 0-4.52-7.89l-22.89-13.34a9 9 0 0 0-9 0l-22.89 13.34a9.1 9.1 0 0 0-4.52 7.89zm-184 1467a9.1 9.1 0 0 0 4.52 7.89l22.89 13.34a9 9 0 0 0 9 0l22.89-13.34a9.1 9.1 0 0 0 4.52-7.89v-26.67a9.1 9.1 0 0 0-4.52-7.89l-22.89-13.34a9 9 0 0 0-9 0l-22.89 13.34a9.1 9.1 0 0 0-4.52 7.89zm73 0a9.1 9.1 0 0 0 4.52 7.89l22.89 13.34a9 9 0 0 0 9 0l22.89-13.34a9.1 9.1 0 0 0 4.52-7.89v-26.67a9.1 9.1 0 0 0-4.52-7.89l-22.89-13.34a9 9 0 0 0-9 0l-22.89 13.34a9.1 9.1 0 0 0-4.52 7.89zm73 0a9.1 9.1 0 0 0 4.52 7.89l22.89 13.34a9 9 0 0 0 9 0l22.89-13.34a9.1 9.1 0 0 0 4.52-7.89v-26.67a9.1 9.1 0 0 0-4.52-7.89l-22.89-13.34a9 9 0 0 0-9 0l-22.89 13.34a9.1 9.1 0 0 0-4.52 7.89zm-146-127a9.1 9.1 0 0 0 4.52 7.89l22.89 13.34a9 9 0 0 0 9 0l22.89-13.34a9.1 9.1 0 0 0 4.52-7.89v-26.67a9.1 9.1 0 0 0-4.52-7.89l-22.89-13.34a9 9 0 0 0-9 0l-22.89 13.34a9.1 9.1 0 0 0-4.52 7.89zm73 0a9.1 9.1 0 0 0 4.52 7.89l22.89 13.34a9 9 0 0 0 9 0l22.89-13.34a9.1 9.1 0 0 0 4.52-7.89v-26.67a9.1 9.1 0 0 0-4.52-7.89l-22.89-13.34a9 9 0 0 0-9 0l-22.89 13.34a9.1 9.1 0 0 0-4.52 7.89zm73 0a9.1 9.1 0 0 0 4.52 7.89l22.89 13.34a9 9 0 0 0 9 0l22.89-13.34a9.1 9.1 0 0 0 4.52-7.89v-26.67a9.1 9.1 0 0 0-4.52-7.89l-22.89-13.34a9 9 0 0 0-9 0l-22.89 13.34a9.1 9.1 0 0 0-4.52 7.89zm-111-62a9.1 9.1 0 0 0 4.52 7.89l22.89 13.34a9 9 0 0 0 9 0l22.89-13.34a9.1 9.1 0 0 0 4.52-7.89v-26.67a9.1 9.1 0 0 0-4.52-7.89l-22.89-13.34a9 9 0 0 0-9 0l-22.89 13.34a9.1 9.1 0 0 0-4.52 7.89zm75 0a9.1 9.1 0 0 0 4.52 7.89l22.89 13.34a9 9 0 0 0 9 0l22.89-13.34a9.1 9.1 0 0 0 4.52-7.89v-26.67a9.1 9.1 0 0 0-4.52-7.89l-22.89-13.34a9 9 0 0 0-9 0l-22.89 13.34a9.1 9.1 0 0 0-4.52 7.89zm-75 126a9.1 9.1 0 0 0 4.52 7.89l22.89 13.34a9 9 0 0 0 9 0l22.89-13.34a9.1 9.1 0 0 0 4.52-7.89v-26.67a9.1 9.1 0 0 0-4.52-7.89l-22.89-13.34a9 9 0 0 0-9 0l-22.89 13.34a9.1 9.1 0 0 0-4.52 7.89zm75 0a9.1 9.1 0 0 0 4.52 7.89l22.89 13.34a9 9 0 0 0 9 0l22.89-13.34a9.1 9.1 0 0 0 4.52-7.89v-26.67a9.1 9.1 0 0 0-4.52-7.89l-22.89-13.34a9 9 0 0 0-9 0l-22.89 13.34a9.1 9.1 0 0 0-4.52 7.89zm72 0a9.1 9.1 0 0 0 4.52 7.89l22.89 13.34a9 9 0 0 0 9 0l22.89-13.34a9.1 9.1 0 0 0 4.52-7.89v-26.67a9.1 9.1 0 0 0-4.52-7.89l-22.89-13.34a9 9 0 0 0-9 0l-22.89 13.34a9.1 9.1 0 0 0-4.52 7.89zm-182-190a9.1 9.1 0 0 0 4.52 7.89l22.89 13.34a9 9 0 0 0 9 0l22.89-13.34a9.1 9.1 0 0 0 4.52-7.89v-26.67a9.1 9.1 0 0 0-4.52-7.89l-22.89-13.34a9 9 0 0 0-9 0l-22.89 13.34a9.1 9.1 0 0 0-4.52 7.89zm73 0a9.1 9.1 0 0 0 4.52 7.89l22.89 13.34a9 9 0 0 0 9 0l22.89-13.34a9.1 9.1 0 0 0 4.52-7.89v-26.67a9.1 9.1 0 0 0-4.52-7.89l-22.89-13.34a9 9 0 0 0-9 0l-22.89 13.34a9.1 9.1 0 0 0-4.52 7.89zm73 0a9.1 9.1 0 0 0 4.52 7.89l22.89 13.34a9 9 0 0 0 9 0l22.89-13.34a9.1 9.1 0 0 0 4.52-7.89v-26.67a9.1 9.1 0 0 0-4.52-7.89l-22.89-13.34a9 9 0 0 0-9 0l-22.89 13.34a9.1 9.1 0 0 0-4.52 7.89zm-146-127a9.1 9.1 0 0 0 4.52 7.89l22.89 13.34a9 9 0 0 0 9 0l22.89-13.34a9.1 9.1 0 0 0 4.52-7.89v-26.67a9.1 9.1 0 0 0-4.52-7.89l-22.89-13.34a9 9 0 0 0-9 0l-22.89 13.34a9.1 9.1 0 0 0-4.52 7.89zm73 0a9.1 9.1 0 0 0 4.52 7.89l22.89 13.34a9 9 0 0 0 9 0l22.89-13.34a9.1 9.1 0 0 0 4.52-7.89v-26.67a9.1 9.1 0 0 0-4.52-7.89l-22.89-13.34a9 9 0 0 0-9 0l-22.89 13.34a9.1 9.1 0 0 0-4.52 7.89zm73 0a9.1 9.1 0 0 0 4.52 7.89l22.89 13.34a9 9 0 0 0 9 0l22.89-13.34a9.1 9.1 0 0 0 4.52-7.89v-26.67a9.1 9.1 0 0 0-4.52-7.89l-22.89-13.34a9 9 0 0 0-9 0l-22.89 13.34a9.1 9.1 0 0 0-4.52 7.89zm-111 64a9.1 9.1 0 0 0 4.52 7.89l22.89 13.34a9 9 0 0 0 9 0l22.89-13.34a9.1 9.1 0 0 0 4.52-7.89v-26.67a9.1 9.1 0 0 0-4.52-7.89l-22.89-13.34a9 9 0 0 0-9 0l-22.89 13.34a9.1 9.1 0 0 0-4.52 7.89zm75 0a9.1 9.1 0 0 0 4.52 7.89l22.89 13.34a9 9 0 0 0 9 0l22.89-13.34a9.1 9.1 0 0 0 4.52-7.89v-26.67a9.1 9.1 0 0 0-4.52-7.89l-22.89-13.34a9 9 0 0 0-9 0l-22.89 13.34a9.1 9.1 0 0 0-4.52 7.89zm72 0a9.1 9.1 0 0 0 4.52 7.89l22.89 13.34a9 9 0 0 0 9 0l22.89-13.34a9.1 9.1 0 0 0 4.52-7.89v-26.67a9.1 9.1 0 0 0-4.52-7.89l-22.89-13.34a9 9 0 0 0-9 0l-22.89 13.34a9.1 9.1 0 0 0-4.52 7.89zm-147-129a9.1 9.1 0 0 0 4.52 7.89l22.89 13.34a9 9 0 0 0 9 0l22.89-13.34a9.1 9.1 0 0 0 4.52-7.89v-26.67a9.1 9.1 0 0 0-4.52-7.89l-22.89-13.34a9 9 0 0 0-9 0l-22.89 13.34a9.1 9.1 0 0 0-4.52 7.89zm75 0a9.1 9.1 0 0 0 4.52 7.89l22.89 13.34a9 9 0 0 0 9 0l22.89-13.34a9.1 9.1 0 0 0 4.52-7.89v-26.67a9.1 9.1 0 0 0-4.52-7.89l-22.89-13.34a9 9 0 0 0-9 0l-22.89 13.34a9.1 9.1 0 0 0-4.52 7.89zm-110-64a9.1 9.1 0 0 0 4.52 7.89l22.89 13.34a9 9 0 0 0 9 0l22.89-13.34a9.1 9.1 0 0 0 4.52-7.89v-26.67a9.1 9.1 0 0 0-4.52-7.89l-22.89-13.34a9 9 0 0 0-9 0l-22.89 13.34a9.1 9.1 0 0 0-4.52 7.89zm73 0a9.1 9.1 0 0 0 4.52 7.89l22.89 13.34a9 9 0 0 0 9 0l22.89-13.34a9.1 9.1 0 0 0 4.52-7.89v-26.67a9.1 9.1 0 0 0-4.52-7.89l-22.89-13.34a9 9 0 0 0-9 0l-22.89 13.34a9.1 9.1 0 0 0-4.52 7.89zm73 0a9.1 9.1 0 0 0 4.52 7.89l22.89 13.34a9 9 0 0 0 9 0l22.89-13.34a9.1 9.1 0 0 0 4.52-7.89v-26.67a9.1 9.1 0 0 0-4.52-7.89l-22.89-13.34a9 9 0 0 0-9 0l-22.89 13.34a9.1 9.1 0 0 0-4.52 7.89zm-146-127a9.1 9.1 0 0 0 4.52 7.89l22.89 13.34a9 9 0 0 0 9 0l22.93-13.35a9.1 9.1 0 0 0 4.52-7.89v-26.66a9.1 9.1 0 0 0-4.52-7.89l-22.89-13.34a9 9 0 0 0-9 0l-22.89 13.34a9.1 9.1 0 0 0-4.52 7.89zm73 0a9.1 9.1 0 0 0 4.52 7.89l22.89 13.34a9 9 0 0 0 9 0l22.93-13.35a9.1 9.1 0 0 0 4.52-7.89v-26.66a9.1 9.1 0 0 0-4.52-7.89l-22.89-13.34a9 9 0 0 0-9 0l-22.89 13.34a9.1 9.1 0 0 0-4.52 7.89zm73 0a9.1 9.1 0 0 0 4.52 7.89l22.89 13.34a9 9 0 0 0 9 0l22.93-13.35a9.1 9.1 0 0 0 4.52-7.89v-26.66a9.1 9.1 0 0 0-4.52-7.89l-22.89-13.34a9 9 0 0 0-9 0l-22.89 13.34a9.1 9.1 0 0 0-4.52 7.89zm-111 64a9.1 9.1 0 0 0 4.52 7.89l22.89 13.34a9 9 0 0 0 9 0l22.89-13.34a9.1 9.1 0 0 0 4.52-7.89v-26.67a9.1 9.1 0 0 0-4.52-7.89l-22.89-13.34a9 9 0 0 0-9 0l-22.89 13.34a9.1 9.1 0 0 0-4.52 7.89zm75 0a9.1 9.1 0 0 0 4.52 7.89l22.89 13.34a9 9 0 0 0 9 0l22.89-13.34a9.1 9.1 0 0 0 4.52-7.89v-26.67a9.1 9.1 0 0 0-4.52-7.89l-22.89-13.34a9 9 0 0 0-9 0l-22.89 13.34a9.1 9.1 0 0 0-4.52 7.89zm72 0a9.1 9.1 0 0 0 4.52 7.89l22.89 13.34a9 9 0 0 0 9 0l22.89-13.34a9.1 9.1 0 0 0 4.52-7.89v-26.67a9.1 9.1 0 0 0-4.52-7.89l-22.89-13.34a9 9 0 0 0-9 0l-22.89 13.34a9.1 9.1 0 0 0-4.52 7.89zm-147-129a9.1 9.1 0 0 0 4.52 7.89l22.89 13.34a9 9 0 0 0 9 0l22.93-13.35a9.1 9.1 0 0 0 4.52-7.89v-26.66a9.1 9.1 0 0 0-4.52-7.89l-22.89-13.34a9 9 0 0 0-9 0l-22.89 13.34a9.1 9.1 0 0 0-4.52 7.89zm75 0a9.1 9.1 0 0 0 4.52 7.89l22.89 13.34a9 9 0 0 0 9 0l22.93-13.35a9.1 9.1 0 0 0 4.52-7.89v-26.66a9.1 9.1 0 0 0-4.52-7.89l-22.89-13.34a9 9 0 0 0-9 0l-22.89 13.34a9.1 9.1 0 0 0-4.52 7.89zm-110-64a9.1 9.1 0 0 0 4.52 7.89l22.89 13.34a9 9 0 0 0 9 0l22.93-13.35a9.1 9.1 0 0 0 4.52-7.89v-26.66a9.1 9.1 0 0 0-4.52-7.89l-22.89-13.34a9 9 0 0 0-9 0l-22.89 13.34a9.1 9.1 0 0 0-4.52 7.89zm73 0a9.1 9.1 0 0 0 4.52 7.89l22.89 13.34a9 9 0 0 0 9 0l22.93-13.35a9.1 9.1 0 0 0 4.52-7.89v-26.66a9.1 9.1 0 0 0-4.52-7.89l-22.89-13.34a9 9 0 0 0-9 0l-22.89 13.34a9.1 9.1 0 0 0-4.52 7.89zm73 0a9.1 9.1 0 0 0 4.52 7.89l22.89 13.34a9 9 0 0 0 9 0l22.93-13.35a9.1 9.1 0 0 0 4.52-7.89v-26.66a9.1 9.1 0 0 0-4.52-7.89l-22.89-13.34a9 9 0 0 0-9 0l-22.89 13.34a9.1 9.1 0 0 0-4.52 7.89zm-146-127a9.1 9.1 0 0 0 4.52 7.89l22.89 13.34a9 9 0 0 0 9 0l22.93-13.35a9.1 9.1 0 0 0 4.52-7.89v-26.66a9.1 9.1 0 0 0-4.52-7.89l-22.89-13.34a9 9 0 0 0-9 0l-22.89 13.34a9.1 9.1 0 0 0-4.52 7.89zm73 0a9.1 9.1 0 0 0 4.52 7.89l22.89 13.34a9 9 0 0 0 9 0l22.93-13.35a9.1 9.1 0 0 0 4.52-7.89v-26.66a9.1 9.1 0 0 0-4.52-7.89l-22.89-13.34a9 9 0 0 0-9 0l-22.89 13.34a9.1 9.1 0 0 0-4.52 7.89zm73 0a9.1 9.1 0 0 0 4.52 7.89l22.89 13.34a9 9 0 0 0 9 0l22.93-13.35a9.1 9.1 0 0 0 4.52-7.89v-26.66a9.1 9.1 0 0 0-4.52-7.89l-22.89-13.34a9 9 0 0 0-9 0l-22.89 13.34a9.1 9.1 0 0 0-4.52 7.89zm-111 64a9.1 9.1 0 0 0 4.52 7.89l22.89 13.34a9 9 0 0 0 9 0l22.93-13.35a9.1 9.1 0 0 0 4.52-7.89v-26.66a9.1 9.1 0 0 0-4.52-7.89l-22.89-13.34a9 9 0 0 0-9 0l-22.89 13.34a9.1 9.1 0 0 0-4.52 7.89zm75 0a9.1 9.1 0 0 0 4.52 7.89l22.89 13.34a9 9 0 0 0 9 0l22.93-13.35a9.1 9.1 0 0 0 4.52-7.89v-26.66a9.1 9.1 0 0 0-4.52-7.89l-22.89-13.34a9 9 0 0 0-9 0l-22.89 13.34a9.1 9.1 0 0 0-4.52 7.89zm72 0a9.1 9.1 0 0 0 4.52 7.89l22.89 13.34a9 9 0 0 0 9 0l22.93-13.35a9.1 9.1 0 0 0 4.52-7.89v-26.66a9.1 9.1 0 0 0-4.52-7.89l-22.89-13.34a9 9 0 0 0-9 0l-22.89 13.34a9.1 9.1 0 0 0-4.52 7.89zm-147-129a9.1 9.1 0 0 0 4.52 7.89l22.89 13.34a9 9 0 0 0 9 0l22.93-13.35a9.1 9.1 0 0 0 4.52-7.89v-26.66a9.1 9.1 0 0 0-4.52-7.89l-22.89-13.34a9 9 0 0 0-9 0l-22.89 13.34a9.1 9.1 0 0 0-4.52 7.89zm75 0a9.1 9.1 0 0 0 4.52 7.89l22.89 13.34a9 9 0 0 0 9 0l22.93-13.35a9.1 9.1 0 0 0 4.52-7.89v-26.66a9.1 9.1 0 0 0-4.52-7.89l-22.89-13.34a9 9 0 0 0-9 0l-22.89 13.34a9.1 9.1 0 0 0-4.52 7.89zm-110-64a9.1 9.1 0 0 0 4.52 7.89l22.89 13.34a9 9 0 0 0 9 0l22.93-13.35a9.1 9.1 0 0 0 4.52-7.89v-26.66a9.1 9.1 0 0 0-4.52-7.89l-22.89-13.34a9 9 0 0 0-9 0l-22.89 13.34a9.1 9.1 0 0 0-4.52 7.89zm73 0a9.1 9.1 0 0 0 4.52 7.89l22.89 13.34a9 9 0 0 0 9 0l22.93-13.35a9.1 9.1 0 0 0 4.52-7.89v-26.66a9.1 9.1 0 0 0-4.52-7.89l-22.89-13.34a9 9 0 0 0-9 0l-22.89 13.34a9.1 9.1 0 0 0-4.52 7.89zm73 0a9.1 9.1 0 0 0 4.52 7.89l22.89 13.34a9 9 0 0 0 9 0l22.93-13.35a9.1 9.1 0 0 0 4.52-7.89v-26.66a9.1 9.1 0 0 0-4.52-7.89l-22.89-13.34a9 9 0 0 0-9 0l-22.89 13.34a9.1 9.1 0 0 0-4.52 7.89zm-146-127a9.1 9.1 0 0 0 4.52 7.89l22.89 13.34a9 9 0 0 0 9 0l22.93-13.35a9.1 9.1 0 0 0 4.52-7.89v-26.66a9.1 9.1 0 0 0-4.52-7.89l-22.89-13.34a9 9 0 0 0-9 0l-22.89 13.34a9.1 9.1 0 0 0-4.52 7.89zm73 0a9.1 9.1 0 0 0 4.52 7.89l22.89 13.34a9 9 0 0 0 9 0l22.93-13.35a9.1 9.1 0 0 0 4.52-7.89v-26.66a9.1 9.1 0 0 0-4.52-7.89l-22.89-13.34a9 9 0 0 0-9 0l-22.89 13.34a9.1 9.1 0 0 0-4.52 7.89zm73 0a9.1 9.1 0 0 0 4.52 7.89l22.89 13.34a9 9 0 0 0 9 0l22.93-13.35a9.1 9.1 0 0 0 4.52-7.89v-26.66a9.1 9.1 0 0 0-4.52-7.89l-22.89-13.34a9 9 0 0 0-9 0l-22.89 13.34a9.1 9.1 0 0 0-4.52 7.89zm-111 64a9.1 9.1 0 0 0 4.52 7.89l22.89 13.34a9 9 0 0 0 9 0l22.93-13.35a9.1 9.1 0 0 0 4.52-7.89v-26.66a9.1 9.1 0 0 0-4.52-7.89l-22.89-13.34a9 9 0 0 0-9 0l-22.89 13.34a9.1 9.1 0 0 0-4.52 7.89zm75 0a9.1 9.1 0 0 0 4.52 7.89l22.89 13.34a9 9 0 0 0 9 0l22.93-13.35a9.1 9.1 0 0 0 4.52-7.89v-26.66a9.1 9.1 0 0 0-4.52-7.89l-22.89-13.34a9 9 0 0 0-9 0l-22.89 13.34a9.1 9.1 0 0 0-4.52 7.89zm72 0a9.1 9.1 0 0 0 4.52 7.89l22.89 13.34a9 9 0 0 0 9 0l22.93-13.35a9.1 9.1 0 0 0 4.52-7.89v-26.66a9.1 9.1 0 0 0-4.52-7.89l-22.89-13.34a9 9 0 0 0-9 0l-22.89 13.34a9.1 9.1 0 0 0-4.52 7.89zm-147-129a9.1 9.1 0 0 0 4.52 7.89l22.89 13.34a9 9 0 0 0 9 0l22.93-13.35a9.1 9.1 0 0 0 4.52-7.89v-26.66a9.1 9.1 0 0 0-4.52-7.89l-22.89-13.34a9 9 0 0 0-9 0l-22.89 13.34a9.1 9.1 0 0 0-4.52 7.89zm75 0a9.1 9.1 0 0 0 4.52 7.89l22.89 13.34a9 9 0 0 0 9 0l22.93-13.35a9.1 9.1 0 0 0 4.52-7.89v-26.66a9.1 9.1 0 0 0-4.52-7.89l-22.89-13.34a9 9 0 0 0-9 0l-22.89 13.34a9.1 9.1 0 0 0-4.52 7.89zm-110-64a9.1 9.1 0 0 0 4.52 7.89l22.89 13.34a9 9 0 0 0 9 0l22.93-13.35a9.1 9.1 0 0 0 4.52-7.89v-26.66a9.1 9.1 0 0 0-4.52-7.89l-22.89-13.34a9 9 0 0 0-9 0l-22.89 13.34a9.1 9.1 0 0 0-4.52 7.89zm73 0a9.1 9.1 0 0 0 4.52 7.89l22.89 13.34a9 9 0 0 0 9 0l22.93-13.35a9.1 9.1 0 0 0 4.52-7.89v-26.66a9.1 9.1 0 0 0-4.52-7.89l-22.89-13.34a9 9 0 0 0-9 0l-22.89 13.34a9.1 9.1 0 0 0-4.52 7.89zm73 0a9.1 9.1 0 0 0 4.52 7.89l22.89 13.34a9 9 0 0 0 9 0l22.93-13.35a9.1 9.1 0 0 0 4.52-7.89v-26.66a9.1 9.1 0 0 0-4.52-7.89l-22.89-13.34a9 9 0 0 0-9 0l-22.89 13.34a9.1 9.1 0 0 0-4.52 7.89zm-146-127a9.1 9.1 0 0 0 4.52 7.89l22.89 13.34a9 9 0 0 0 9 0l22.93-13.35a9.1 9.1 0 0 0 4.52-7.89v-26.66a9.1 9.1 0 0 0-4.52-7.89l-22.89-13.34a9 9 0 0 0-9 0l-22.89 13.34a9.1 9.1 0 0 0-4.52 7.89zm73 0a9.1 9.1 0 0 0 4.52 7.89l22.89 13.34a9 9 0 0 0 9 0l22.93-13.35a9.1 9.1 0 0 0 4.52-7.89v-26.66a9.1 9.1 0 0 0-4.52-7.89l-22.89-13.34a9 9 0 0 0-9 0l-22.89 13.34a9.1 9.1 0 0 0-4.52 7.89zm73 0a9.1 9.1 0 0 0 4.52 7.89l22.89 13.34a9 9 0 0 0 9 0l22.93-13.35a9.1 9.1 0 0 0 4.52-7.89v-26.66a9.1 9.1 0 0 0-4.52-7.89l-22.89-13.34a9 9 0 0 0-9 0l-22.89 13.34a9.1 9.1 0 0 0-4.52 7.89zm-111 64a9.1 9.1 0 0 0 4.52 7.89l22.89 13.34a9 9 0 0 0 9 0l22.93-13.35a9.1 9.1 0 0 0 4.52-7.89v-26.66a9.1 9.1 0 0 0-4.52-7.89l-22.89-13.34a9 9 0 0 0-9 0l-22.89 13.34a9.1 9.1 0 0 0-4.52 7.89zm75 0a9.1 9.1 0 0 0 4.52 7.89l22.89 13.34a9 9 0 0 0 9 0l22.93-13.35a9.1 9.1 0 0 0 4.52-7.89v-26.66a9.1 9.1 0 0 0-4.52-7.89l-22.89-13.34a9 9 0 0 0-9 0l-22.89 13.34a9.1 9.1 0 0 0-4.52 7.89zm72 0a9.1 9.1 0 0 0 4.52 7.89l22.89 13.34a9 9 0 0 0 9 0l22.93-13.35a9.1 9.1 0 0 0 4.52-7.89v-26.66a9.1 9.1 0 0 0-4.52-7.89l-22.89-13.34a9 9 0 0 0-9 0l-22.89 13.34a9.1 9.1 0 0 0-4.52 7.89zM1319 1577.12a9.1 9.1 0 0 0 4.52 7.89l22.89 13.34a9 9 0 0 0 9 0l22.89-13.34a9.1 9.1 0 0 0 4.52-7.89v-26.67a9.1 9.1 0 0 0-4.52-7.89l-22.89-13.34a9 9 0 0 0-9 0l-22.89 13.34a9.1 9.1 0 0 0-4.52 7.89zm73-122a9.1 9.1 0 0 0 4.52 7.89l22.89 13.34a9 9 0 0 0 9 0l22.89-13.34a9.1 9.1 0 0 0 4.52-7.89v-26.67a9.1 9.1 0 0 0-4.52-7.89l-22.89-13.34a9 9 0 0 0-9 0l-22.89 13.34a9.1 9.1 0 0 0-4.52 7.89zm73 122a9.1 9.1 0 0 0 4.52 7.89l22.89 13.34a9 9 0 0 0 9 0l22.89-13.34a9.1 9.1 0 0 0 4.52-7.89v-26.67a9.1 9.1 0 0 0-4.52-7.89l-22.89-13.34a9 9 0 0 0-9 0l-22.89 13.34a9.1 9.1 0 0 0-4.52 7.89zm-36-61a9.1 9.1 0 0 0 4.52 7.89l22.89 13.34a9 9 0 0 0 9 0l22.89-13.34a9.1 9.1 0 0 0 4.52-7.89v-26.67a9.1 9.1 0 0 0-4.52-7.89l-22.89-13.34a9 9 0 0 0-9 0l-22.89 13.34a9.1 9.1 0 0 0-4.52 7.89zm182 66a9.1 9.1 0 0 0 4.52 7.89l22.89 13.34a9 9 0 0 0 9 0l22.89-13.34a9.1 9.1 0 0 0 4.52-7.89v-26.67a9.1 9.1 0 0 0-4.52-7.89l-22.89-13.34a9 9 0 0 0-9 0l-22.89 13.34a9.1 9.1 0 0 0-4.52 7.89zm73 0a9.1 9.1 0 0 0 4.52 7.89l22.89 13.34a9 9 0 0 0 9 0l22.89-13.34a9.1 9.1 0 0 0 4.52-7.89v-26.67a9.1 9.1 0 0 0-4.52-7.89l-22.89-13.34a9 9 0 0 0-9 0l-22.89 13.34a9.1 9.1 0 0 0-4.52 7.89zm0-127a9.1 9.1 0 0 0 4.52 7.89l22.89 13.34a9 9 0 0 0 9 0l22.89-13.34a9.1 9.1 0 0 0 4.52-7.89v-26.67a9.1 9.1 0 0 0-4.52-7.89l-22.89-13.34a9 9 0 0 0-9 0l-22.89 13.34a9.1 9.1 0 0 0-4.52 7.89zm-111 64a9.1 9.1 0 0 0 4.52 7.89l22.89 13.34a9 9 0 0 0 9 0l22.89-13.34a9.1 9.1 0 0 0 4.52-7.89v-26.67a9.1 9.1 0 0 0-4.52-7.89l-22.89-13.34a9 9 0 0 0-9 0l-22.89 13.34a9.1 9.1 0 0 0-4.52 7.89zm75 0a9.1 9.1 0 0 0 4.52 7.89l22.89 13.34a9 9 0 0 0 9 0l22.89-13.34a9.1 9.1 0 0 0 4.52-7.89v-26.67a9.1 9.1 0 0 0-4.52-7.89l-22.89-13.34a9 9 0 0 0-9 0l-22.89 13.34a9.1 9.1 0 0 0-4.52 7.89zM1905 1576.12a9.1 9.1 0 0 0 4.52 7.89l22.89 13.34a9 9 0 0 0 9 0l22.89-13.34a9.1 9.1 0 0 0 4.52-7.89v-26.67a9.1 9.1 0 0 0-4.52-7.89l-22.89-13.34a9 9 0 0 0-9 0l-22.89 13.34a9.1 9.1 0 0 0-4.52 7.89zm0-122a9.1 9.1 0 0 0 4.52 7.89l22.89 13.34a9 9 0 0 0 9 0l22.89-13.34a9.1 9.1 0 0 0 4.52-7.89v-26.67a9.1 9.1 0 0 0-4.52-7.89l-22.89-13.34a9 9 0 0 0-9 0l-22.89 13.34a9.1 9.1 0 0 0-4.52 7.89zm-73-127a9.1 9.1 0 0 0 4.52 7.89l22.89 13.34a9 9 0 0 0 9 0l22.89-13.34a9.1 9.1 0 0 0 4.52-7.89v-26.67a9.1 9.1 0 0 0-4.52-7.89l-22.89-13.34a9 9 0 0 0-9 0l-22.89 13.34a9.1 9.1 0 0 0-4.52 7.89zm73 0a9.1 9.1 0 0 0 4.52 7.89l22.89 13.34a9 9 0 0 0 9 0l22.89-13.34a9.1 9.1 0 0 0 4.52-7.89v-26.67a9.1 9.1 0 0 0-4.52-7.89l-22.89-13.34a9 9 0 0 0-9 0l-22.89 13.34a9.1 9.1 0 0 0-4.52 7.89zm-111 188a9.1 9.1 0 0 0 4.52 7.89l22.89 13.34a9 9 0 0 0 9 0l22.89-13.34a9.1 9.1 0 0 0 4.52-7.89v-26.67a9.1 9.1 0 0 0-4.52-7.89l-22.89-13.34a9 9 0 0 0-9 0l-22.89 13.34a9.1 9.1 0 0 0-4.52 7.89zm75 0a9.1 9.1 0 0 0 4.52 7.89l22.89 13.34a9 9 0 0 0 9 0l22.89-13.34a9.1 9.1 0 0 0 4.52-7.89v-26.67a9.1 9.1 0 0 0-4.52-7.89l-22.89-13.34a9 9 0 0 0-9 0l-22.89 13.34a9.1 9.1 0 0 0-4.52 7.89zm-75-250a9.1 9.1 0 0 0 4.52 7.89l22.89 13.34a9 9 0 0 0 9 0l22.89-13.34a9.1 9.1 0 0 0 4.52-7.89v-26.67a9.1 9.1 0 0 0-4.52-7.89l-22.89-13.34a9 9 0 0 0-9 0l-22.89 13.34a9.1 9.1 0 0 0-4.52 7.89zm0 126a9.1 9.1 0 0 0 4.52 7.89l22.89 13.34a9 9 0 0 0 9 0l22.89-13.34a9.1 9.1 0 0 0 4.52-7.89v-26.67a9.1 9.1 0 0 0-4.52-7.89l-22.89-13.34a9 9 0 0 0-9 0l-22.89 13.34a9.1 9.1 0 0 0-4.52 7.89zm75 0a9.1 9.1 0 0 0 4.52 7.89l22.89 13.34a9 9 0 0 0 9 0l22.89-13.34a9.1 9.1 0 0 0 4.52-7.89v-26.67a9.1 9.1 0 0 0-4.52-7.89l-22.89-13.34a9 9 0 0 0-9 0l-22.89 13.34a9.1 9.1 0 0 0-4.52 7.89zm36-190a9.1 9.1 0 0 0 4.52 7.89l22.89 13.34a9 9 0 0 0 9 0l22.89-13.34a9.1 9.1 0 0 0 4.52-7.89v-26.67a9.1 9.1 0 0 0-4.52-7.89l-22.89-13.34a9 9 0 0 0-9 0l-22.89 13.34a9.1 9.1 0 0 0-4.52 7.89zm-146-127a9.1 9.1 0 0 0 4.52 7.89l22.89 13.34a9 9 0 0 0 9 0l22.89-13.34a9.1 9.1 0 0 0 4.52-7.89v-26.67a9.1 9.1 0 0 0-4.52-7.89l-22.89-13.34a9 9 0 0 0-9 0l-22.89 13.34a9.1 9.1 0 0 0-4.52 7.89zm182 64a9.1 9.1 0 0 0 4.52 7.89l22.89 13.34a9 9 0 0 0 9 0l22.89-13.34a9.1 9.1 0 0 0 4.52-7.89v-26.67a9.1 9.1 0 0 0-4.52-7.89l-22.89-13.34a9 9 0 0 0-9 0l-22.89 13.34a9.1 9.1 0 0 0-4.52 7.89zm-147-129a9.1 9.1 0 0 0 4.52 7.89l22.89 13.34a9 9 0 0 0 9 0l22.89-13.34a9.1 9.1 0 0 0 4.52-7.89v-26.67a9.1 9.1 0 0 0-4.52-7.89l-22.89-13.34a9 9 0 0 0-9 0l-22.89 13.34a9.1 9.1 0 0 0-4.52 7.89zm75 0a9.1 9.1 0 0 0 4.52 7.89l22.89 13.34a9 9 0 0 0 9 0l22.89-13.34a9.1 9.1 0 0 0 4.52-7.89v-26.67a9.1 9.1 0 0 0-4.52-7.89l-22.89-13.34a9 9 0 0 0-9 0l-22.89 13.34a9.1 9.1 0 0 0-4.52 7.89zm-110-64a9.1 9.1 0 0 0 4.52 7.89l22.89 13.34a9 9 0 0 0 9 0l22.93-13.35a9.1 9.1 0 0 0 4.52-7.89v-26.66a9.1 9.1 0 0 0-4.52-7.89l-22.89-13.34a9 9 0 0 0-9 0l-22.89 13.34a9.1 9.1 0 0 0-4.52 7.89zm73 0a9.1 9.1 0 0 0 4.52 7.89l22.89 13.34a9 9 0 0 0 9 0l22.93-13.35a9.1 9.1 0 0 0 4.52-7.89v-26.66a9.1 9.1 0 0 0-4.52-7.89l-22.89-13.34a9 9 0 0 0-9 0l-22.89 13.34a9.1 9.1 0 0 0-4.52 7.89zm73 0a9.1 9.1 0 0 0 4.52 7.89l22.89 13.34a9 9 0 0 0 9 0l22.93-13.35a9.1 9.1 0 0 0 4.52-7.89v-26.66a9.1 9.1 0 0 0-4.52-7.89l-22.89-13.34a9 9 0 0 0-9 0l-22.89 13.34a9.1 9.1 0 0 0-4.52 7.89zm-146-127a9.1 9.1 0 0 0 4.52 7.89l22.89 13.34a9 9 0 0 0 9 0l22.93-13.35a9.1 9.1 0 0 0 4.52-7.89v-26.66a9.1 9.1 0 0 0-4.52-7.89l-22.89-13.34a9 9 0 0 0-9 0l-22.89 13.34a9.1 9.1 0 0 0-4.52 7.89zm73 0a9.1 9.1 0 0 0 4.52 7.89l22.89 13.34a9 9 0 0 0 9 0l22.93-13.35a9.1 9.1 0 0 0 4.52-7.89v-26.66a9.1 9.1 0 0 0-4.52-7.89l-22.89-13.34a9 9 0 0 0-9 0l-22.89 13.34a9.1 9.1 0 0 0-4.52 7.89zm-73-256a9.1 9.1 0 0 0 4.52 7.89l22.89 13.34a9 9 0 0 0 9 0l22.93-13.35a9.1 9.1 0 0 0 4.52-7.89v-26.66a9.1 9.1 0 0 0-4.52-7.89l-22.89-13.34a9 9 0 0 0-9 0l-22.89 13.34a9.1 9.1 0 0 0-4.52 7.89zm110-448a9.1 9.1 0 0 0 4.52 7.89l22.89 13.34a9 9 0 0 0 9 0l22.93-13.35a9.1 9.1 0 0 0 4.52-7.89V87.45a9.1 9.1 0 0 0-4.52-7.89l-22.89-13.34a9 9 0 0 0-9 0l-22.89 13.34a9.1 9.1 0 0 0-4.52 7.89zm72 0a9.1 9.1 0 0 0 4.52 7.89l22.89 13.34a9 9 0 0 0 9 0l22.93-13.35a9.1 9.1 0 0 0 4.52-7.89V87.45a9.1 9.1 0 0 0-4.52-7.89l-22.89-13.34a9 9 0 0 0-9 0l-22.89 13.34a9.1 9.1 0 0 0-4.52 7.89zm39-64a9.1 9.1 0 0 0 4.52 7.89l22.89 13.34a9 9 0 0 0 9 0L2039.34 58a9.1 9.1 0 0 0 4.52-7.89V23.45a9.1 9.1 0 0 0-4.52-7.89l-22.89-13.34a9 9 0 0 0-9 0l-22.89 13.34a9.1 9.1 0 0 0-4.52 7.89zm182 64a9.1 9.1 0 0 0 4.52 7.89l22.89 13.34a9 9 0 0 0 9 0l22.93-13.35a9.1 9.1 0 0 0 4.52-7.89V87.45a9.1 9.1 0 0 0-4.52-7.89l-22.89-13.34a9 9 0 0 0-9 0l-22.89 13.34a9.1 9.1 0 0 0-4.52 7.89zm-111 1467a9.1 9.1 0 0 0 4.52 7.89l22.89 13.34a9 9 0 0 0 9 0l22.89-13.34a9.1 9.1 0 0 0 4.52-7.89v-26.67a9.1 9.1 0 0 0-4.52-7.89l-22.89-13.34a9 9 0 0 0-9 0l-22.89 13.34a9.1 9.1 0 0 0-4.52 7.89zm73 0a9.1 9.1 0 0 0 4.52 7.89l22.89 13.34a9 9 0 0 0 9 0l22.89-13.34a9.1 9.1 0 0 0 4.52-7.89v-26.67a9.1 9.1 0 0 0-4.52-7.89l-22.89-13.34a9 9 0 0 0-9 0l-22.89 13.34a9.1 9.1 0 0 0-4.52 7.89zm-146-127a9.1 9.1 0 0 0 4.52 7.89l22.89 13.34a9 9 0 0 0 9 0l22.89-13.34a9.1 9.1 0 0 0 4.52-7.89v-26.67a9.1 9.1 0 0 0-4.52-7.89l-22.89-13.34a9 9 0 0 0-9 0l-22.89 13.34a9.1 9.1 0 0 0-4.52 7.89zm146 0a9.1 9.1 0 0 0 4.52 7.89l22.89 13.34a9 9 0 0 0 9 0l22.89-13.34a9.1 9.1 0 0 0 4.52-7.89v-26.67a9.1 9.1 0 0 0-4.52-7.89l-22.89-13.34a9 9 0 0 0-9 0l-22.89 13.34a9.1 9.1 0 0 0-4.52 7.89zm-111-62a9.1 9.1 0 0 0 4.52 7.89l22.89 13.34a9 9 0 0 0 9 0l22.89-13.34a9.1 9.1 0 0 0 4.52-7.89v-26.67a9.1 9.1 0 0 0-4.52-7.89l-22.89-13.34a9 9 0 0 0-9 0l-22.89 13.34a9.1 9.1 0 0 0-4.52 7.89zm0 126a9.1 9.1 0 0 0 4.52 7.89l22.89 13.34a9 9 0 0 0 9 0l22.89-13.34a9.1 9.1 0 0 0 4.52-7.89v-26.67a9.1 9.1 0 0 0-4.52-7.89l-22.89-13.34a9 9 0 0 0-9 0l-22.89 13.34a9.1 9.1 0 0 0-4.52 7.89zm75 0a9.1 9.1 0 0 0 4.52 7.89l22.89 13.34a9 9 0 0 0 9 0l22.89-13.34a9.1 9.1 0 0 0 4.52-7.89v-26.67a9.1 9.1 0 0 0-4.52-7.89l-22.89-13.34a9 9 0 0 0-9 0l-22.89 13.34a9.1 9.1 0 0 0-4.52 7.89zm72 0a9.1 9.1 0 0 0 4.52 7.89l22.89 13.34a9 9 0 0 0 9 0l22.89-13.34a9.1 9.1 0 0 0 4.52-7.89v-26.67a9.1 9.1 0 0 0-4.52-7.89l-22.89-13.34a9 9 0 0 0-9 0l-22.89 13.34a9.1 9.1 0 0 0-4.52 7.89zm-182-190a9.1 9.1 0 0 0 4.52 7.89l22.89 13.34a9 9 0 0 0 9 0l22.89-13.34a9.1 9.1 0 0 0 4.52-7.89v-26.67a9.1 9.1 0 0 0-4.52-7.89l-22.89-13.34a9 9 0 0 0-9 0l-22.89 13.34a9.1 9.1 0 0 0-4.52 7.89zm146 0a9.1 9.1 0 0 0 4.52 7.89l22.89 13.34a9 9 0 0 0 9 0l22.89-13.34a9.1 9.1 0 0 0 4.52-7.89v-26.67a9.1 9.1 0 0 0-4.52-7.89l-22.89-13.34a9 9 0 0 0-9 0l-22.89 13.34a9.1 9.1 0 0 0-4.52 7.89zm-146-127a9.1 9.1 0 0 0 4.52 7.89l22.89 13.34a9 9 0 0 0 9 0l22.89-13.34a9.1 9.1 0 0 0 4.52-7.89v-26.67a9.1 9.1 0 0 0-4.52-7.89l-22.89-13.34a9 9 0 0 0-9 0l-22.89 13.34a9.1 9.1 0 0 0-4.52 7.89zm146 0a9.1 9.1 0 0 0 4.52 7.89l22.89 13.34a9 9 0 0 0 9 0l22.89-13.34a9.1 9.1 0 0 0 4.52-7.89v-26.67a9.1 9.1 0 0 0-4.52-7.89l-22.89-13.34a9 9 0 0 0-9 0l-22.89 13.34a9.1 9.1 0 0 0-4.52 7.89zm-111 64a9.1 9.1 0 0 0 4.52 7.89l22.89 13.34a9 9 0 0 0 9 0l22.89-13.34a9.1 9.1 0 0 0 4.52-7.89v-26.67a9.1 9.1 0 0 0-4.52-7.89l-22.89-13.34a9 9 0 0 0-9 0l-22.89 13.34a9.1 9.1 0 0 0-4.52 7.89zm75 0a9.1 9.1 0 0 0 4.52 7.89l22.89 13.34a9 9 0 0 0 9 0l22.89-13.34a9.1 9.1 0 0 0 4.52-7.89v-26.67a9.1 9.1 0 0 0-4.52-7.89l-22.89-13.34a9 9 0 0 0-9 0l-22.89 13.34a9.1 9.1 0 0 0-4.52 7.89zm72 0a9.1 9.1 0 0 0 4.52 7.89l22.89 13.34a9 9 0 0 0 9 0l22.89-13.34a9.1 9.1 0 0 0 4.52-7.89v-26.67a9.1 9.1 0 0 0-4.52-7.89l-22.89-13.34a9 9 0 0 0-9 0l-22.89 13.34a9.1 9.1 0 0 0-4.52 7.89zm-147-129a9.1 9.1 0 0 0 4.52 7.89l22.89 13.34a9 9 0 0 0 9 0l22.89-13.34a9.1 9.1 0 0 0 4.52-7.89v-26.67a9.1 9.1 0 0 0-4.52-7.89l-22.89-13.34a9 9 0 0 0-9 0l-22.89 13.34a9.1 9.1 0 0 0-4.52 7.89zm75 0a9.1 9.1 0 0 0 4.52 7.89l22.89 13.34a9 9 0 0 0 9 0l22.89-13.34a9.1 9.1 0 0 0 4.52-7.89v-26.67a9.1 9.1 0 0 0-4.52-7.89l-22.89-13.34a9 9 0 0 0-9 0l-22.89 13.34a9.1 9.1 0 0 0-4.52 7.89zm-110-64a9.1 9.1 0 0 0 4.52 7.89l22.89 13.34a9 9 0 0 0 9 0l22.89-13.34a9.1 9.1 0 0 0 4.52-7.89v-26.67a9.1 9.1 0 0 0-4.52-7.89l-22.89-13.34a9 9 0 0 0-9 0l-22.89 13.34a9.1 9.1 0 0 0-4.52 7.89zm73 0a9.1 9.1 0 0 0 4.52 7.89l22.89 13.34a9 9 0 0 0 9 0l22.89-13.34a9.1 9.1 0 0 0 4.52-7.89v-26.67a9.1 9.1 0 0 0-4.52-7.89l-22.89-13.34a9 9 0 0 0-9 0l-22.89 13.34a9.1 9.1 0 0 0-4.52 7.89zm73 0a9.1 9.1 0 0 0 4.52 7.89l22.89 13.34a9 9 0 0 0 9 0l22.89-13.34a9.1 9.1 0 0 0 4.52-7.89v-26.67a9.1 9.1 0 0 0-4.52-7.89l-22.89-13.34a9 9 0 0 0-9 0l-22.89 13.34a9.1 9.1 0 0 0-4.52 7.89zm-146-127a9.1 9.1 0 0 0 4.52 7.89l22.89 13.34a9 9 0 0 0 9 0l22.93-13.35a9.1 9.1 0 0 0 4.52-7.89v-26.66a9.1 9.1 0 0 0-4.52-7.89l-22.89-13.34a9 9 0 0 0-9 0l-22.89 13.34a9.1 9.1 0 0 0-4.52 7.89zm73 0a9.1 9.1 0 0 0 4.52 7.89l22.89 13.34a9 9 0 0 0 9 0l22.93-13.35a9.1 9.1 0 0 0 4.52-7.89v-26.66a9.1 9.1 0 0 0-4.52-7.89l-22.89-13.34a9 9 0 0 0-9 0l-22.89 13.34a9.1 9.1 0 0 0-4.52 7.89zm73 0a9.1 9.1 0 0 0 4.52 7.89l22.89 13.34a9 9 0 0 0 9 0l22.93-13.35a9.1 9.1 0 0 0 4.52-7.89v-26.66a9.1 9.1 0 0 0-4.52-7.89l-22.89-13.34a9 9 0 0 0-9 0l-22.89 13.34a9.1 9.1 0 0 0-4.52 7.89zm-111 64a9.1 9.1 0 0 0 4.52 7.89l22.89 13.34a9 9 0 0 0 9 0l22.89-13.34a9.1 9.1 0 0 0 4.52-7.89v-26.67a9.1 9.1 0 0 0-4.52-7.89l-22.89-13.34a9 9 0 0 0-9 0l-22.89 13.34a9.1 9.1 0 0 0-4.52 7.89zm75 0a9.1 9.1 0 0 0 4.52 7.89l22.89 13.34a9 9 0 0 0 9 0l22.89-13.34a9.1 9.1 0 0 0 4.52-7.89v-26.67a9.1 9.1 0 0 0-4.52-7.89l-22.89-13.34a9 9 0 0 0-9 0l-22.89 13.34a9.1 9.1 0 0 0-4.52 7.89zm72 0a9.1 9.1 0 0 0 4.52 7.89l22.89 13.34a9 9 0 0 0 9 0l22.89-13.34a9.1 9.1 0 0 0 4.52-7.89v-26.67a9.1 9.1 0 0 0-4.52-7.89l-22.89-13.34a9 9 0 0 0-9 0l-22.89 13.34a9.1 9.1 0 0 0-4.52 7.89zm-147-129a9.1 9.1 0 0 0 4.52 7.89l22.89 13.34a9 9 0 0 0 9 0l22.93-13.35a9.1 9.1 0 0 0 4.52-7.89v-26.66a9.1 9.1 0 0 0-4.52-7.89l-22.89-13.34a9 9 0 0 0-9 0l-22.89 13.34a9.1 9.1 0 0 0-4.52 7.89zm75 0a9.1 9.1 0 0 0 4.52 7.89l22.89 13.34a9 9 0 0 0 9 0l22.93-13.35a9.1 9.1 0 0 0 4.52-7.89v-26.66a9.1 9.1 0 0 0-4.52-7.89l-22.89-13.34a9 9 0 0 0-9 0l-22.89 13.34a9.1 9.1 0 0 0-4.52 7.89zm-110-64a9.1 9.1 0 0 0 4.52 7.89l22.89 13.34a9 9 0 0 0 9 0l22.93-13.35a9.1 9.1 0 0 0 4.52-7.89v-26.66a9.1 9.1 0 0 0-4.52-7.89l-22.89-13.34a9 9 0 0 0-9 0l-22.89 13.34a9.1 9.1 0 0 0-4.52 7.89zm73 0a9.1 9.1 0 0 0 4.52 7.89l22.89 13.34a9 9 0 0 0 9 0l22.93-13.35a9.1 9.1 0 0 0 4.52-7.89v-26.66a9.1 9.1 0 0 0-4.52-7.89l-22.89-13.34a9 9 0 0 0-9 0l-22.89 13.34a9.1 9.1 0 0 0-4.52 7.89zm73 0a9.1 9.1 0 0 0 4.52 7.89l22.89 13.34a9 9 0 0 0 9 0l22.93-13.35a9.1 9.1 0 0 0 4.52-7.89v-26.66a9.1 9.1 0 0 0-4.52-7.89l-22.89-13.34a9 9 0 0 0-9 0l-22.89 13.34a9.1 9.1 0 0 0-4.52 7.89zm-146-127a9.1 9.1 0 0 0 4.52 7.89l22.89 13.34a9 9 0 0 0 9 0l22.93-13.35a9.1 9.1 0 0 0 4.52-7.89v-26.66a9.1 9.1 0 0 0-4.52-7.89l-22.89-13.34a9 9 0 0 0-9 0l-22.89 13.34a9.1 9.1 0 0 0-4.52 7.89zm146 0a9.1 9.1 0 0 0 4.52 7.89l22.89 13.34a9 9 0 0 0 9 0l22.93-13.35a9.1 9.1 0 0 0 4.52-7.89v-26.66a9.1 9.1 0 0 0-4.52-7.89l-22.89-13.34a9 9 0 0 0-9 0l-22.89 13.34a9.1 9.1 0 0 0-4.52 7.89zm-111 64a9.1 9.1 0 0 0 4.52 7.89l22.89 13.34a9 9 0 0 0 9 0l22.93-13.35a9.1 9.1 0 0 0 4.52-7.89v-26.66a9.1 9.1 0 0 0-4.52-7.89l-22.89-13.34a9 9 0 0 0-9 0l-22.89 13.34a9.1 9.1 0 0 0-4.52 7.89zm147 0a9.1 9.1 0 0 0 4.52 7.89l22.89 13.34a9 9 0 0 0 9 0l22.93-13.35a9.1 9.1 0 0 0 4.52-7.89v-26.66a9.1 9.1 0 0 0-4.52-7.89l-22.89-13.34a9 9 0 0 0-9 0l-22.89 13.34a9.1 9.1 0 0 0-4.52 7.89zm-147-129a9.1 9.1 0 0 0 4.52 7.89l22.89 13.34a9 9 0 0 0 9 0l22.93-13.35a9.1 9.1 0 0 0 4.52-7.89v-26.66a9.1 9.1 0 0 0-4.52-7.89l-22.89-13.34a9 9 0 0 0-9 0l-22.89 13.34a9.1 9.1 0 0 0-4.52 7.89zm75 0a9.1 9.1 0 0 0 4.52 7.89l22.89 13.34a9 9 0 0 0 9 0l22.93-13.35a9.1 9.1 0 0 0 4.52-7.89v-26.66a9.1 9.1 0 0 0-4.52-7.89l-22.89-13.34a9 9 0 0 0-9 0l-22.89 13.34a9.1 9.1 0 0 0-4.52 7.89zm-110-64a9.1 9.1 0 0 0 4.52 7.89l22.89 13.34a9 9 0 0 0 9 0l22.93-13.35a9.1 9.1 0 0 0 4.52-7.89v-26.66a9.1 9.1 0 0 0-4.52-7.89l-22.89-13.34a9 9 0 0 0-9 0l-22.89 13.34a9.1 9.1 0 0 0-4.52 7.89zm73 0a9.1 9.1 0 0 0 4.52 7.89l22.89 13.34a9 9 0 0 0 9 0l22.93-13.35a9.1 9.1 0 0 0 4.52-7.89v-26.66a9.1 9.1 0 0 0-4.52-7.89l-22.89-13.34a9 9 0 0 0-9 0l-22.89 13.34a9.1 9.1 0 0 0-4.52 7.89zm-73-127a9.1 9.1 0 0 0 4.52 7.89l22.89 13.34a9 9 0 0 0 9 0l22.93-13.35a9.1 9.1 0 0 0 4.52-7.89v-26.66a9.1 9.1 0 0 0-4.52-7.89l-22.89-13.34a9 9 0 0 0-9 0l-22.89 13.34a9.1 9.1 0 0 0-4.52 7.89zm146 0a9.1 9.1 0 0 0 4.52 7.89l22.89 13.34a9 9 0 0 0 9 0l22.93-13.35a9.1 9.1 0 0 0 4.52-7.89v-26.66a9.1 9.1 0 0 0-4.52-7.89l-22.89-13.34a9 9 0 0 0-9 0l-22.89 13.34a9.1 9.1 0 0 0-4.52 7.89zm-36 64a9.1 9.1 0 0 0 4.52 7.89l22.89 13.34a9 9 0 0 0 9 0l22.93-13.35a9.1 9.1 0 0 0 4.52-7.89v-26.66a9.1 9.1 0 0 0-4.52-7.89l-22.89-13.34a9 9 0 0 0-9 0l-22.89 13.34a9.1 9.1 0 0 0-4.52 7.89zm0-129a9.1 9.1 0 0 0 4.52 7.89l22.89 13.34a9 9 0 0 0 9 0l22.93-13.35a9.1 9.1 0 0 0 4.52-7.89v-26.66a9.1 9.1 0 0 0-4.52-7.89l-22.89-13.34a9 9 0 0 0-9 0l-22.89 13.34a9.1 9.1 0 0 0-4.52 7.89zm-110-64a9.1 9.1 0 0 0 4.52 7.89l22.89 13.34a9 9 0 0 0 9 0l22.93-13.35a9.1 9.1 0 0 0 4.52-7.89v-26.66a9.1 9.1 0 0 0-4.52-7.89l-22.89-13.34a9 9 0 0 0-9 0l-22.89 13.34a9.1 9.1 0 0 0-4.52 7.89zm73 0a9.1 9.1 0 0 0 4.52 7.89l22.89 13.34a9 9 0 0 0 9 0l22.93-13.35a9.1 9.1 0 0 0 4.52-7.89v-26.66a9.1 9.1 0 0 0-4.52-7.89l-22.89-13.34a9 9 0 0 0-9 0l-22.89 13.34a9.1 9.1 0 0 0-4.52 7.89zm73 0a9.1 9.1 0 0 0 4.52 7.89l22.89 13.34a9 9 0 0 0 9 0l22.93-13.35a9.1 9.1 0 0 0 4.52-7.89v-26.66a9.1 9.1 0 0 0-4.52-7.89l-22.89-13.34a9 9 0 0 0-9 0l-22.89 13.34a9.1 9.1 0 0 0-4.52 7.89zm-146-127a9.1 9.1 0 0 0 4.52 7.89l22.89 13.34a9 9 0 0 0 9 0l22.93-13.35a9.1 9.1 0 0 0 4.52-7.89v-26.66a9.1 9.1 0 0 0-4.52-7.89l-22.89-13.34a9 9 0 0 0-9 0l-22.89 13.34a9.1 9.1 0 0 0-4.52 7.89zm73 0a9.1 9.1 0 0 0 4.52 7.89l22.89 13.34a9 9 0 0 0 9 0l22.93-13.35a9.1 9.1 0 0 0 4.52-7.89v-26.66a9.1 9.1 0 0 0-4.52-7.89l-22.89-13.34a9 9 0 0 0-9 0l-22.89 13.34a9.1 9.1 0 0 0-4.52 7.89zm73 0a9.1 9.1 0 0 0 4.52 7.89l22.89 13.34a9 9 0 0 0 9 0l22.93-13.35a9.1 9.1 0 0 0 4.52-7.89v-26.66a9.1 9.1 0 0 0-4.52-7.89l-22.89-13.34a9 9 0 0 0-9 0l-22.89 13.34a9.1 9.1 0 0 0-4.52 7.89zm-111 64a9.1 9.1 0 0 0 4.52 7.89l22.89 13.34a9 9 0 0 0 9 0l22.93-13.35a9.1 9.1 0 0 0 4.52-7.89v-26.66a9.1 9.1 0 0 0-4.52-7.89l-22.89-13.34a9 9 0 0 0-9 0l-22.89 13.34a9.1 9.1 0 0 0-4.52 7.89zm75 0a9.1 9.1 0 0 0 4.52 7.89l22.89 13.34a9 9 0 0 0 9 0l22.93-13.35a9.1 9.1 0 0 0 4.52-7.89v-26.66a9.1 9.1 0 0 0-4.52-7.89l-22.89-13.34a9 9 0 0 0-9 0l-22.89 13.34a9.1 9.1 0 0 0-4.52 7.89zm72 0a9.1 9.1 0 0 0 4.52 7.89l22.89 13.34a9 9 0 0 0 9 0l22.93-13.35a9.1 9.1 0 0 0 4.52-7.89v-26.66a9.1 9.1 0 0 0-4.52-7.89l-22.89-13.34a9 9 0 0 0-9 0l-22.89 13.34a9.1 9.1 0 0 0-4.52 7.89zM2270 1575.12a9.1 9.1 0 0 0 4.52 7.89l22.89 13.34a9 9 0 0 0 9 0l22.89-13.34a9.1 9.1 0 0 0 4.52-7.89v-26.67a9.1 9.1 0 0 0-4.52-7.89l-22.89-13.34a9 9 0 0 0-9 0l-22.89 13.34a9.1 9.1 0 0 0-4.52 7.89zm0-122a9.1 9.1 0 0 0 4.52 7.89l22.89 13.34a9 9 0 0 0 9 0l22.89-13.34a9.1 9.1 0 0 0 4.52-7.89v-26.67a9.1 9.1 0 0 0-4.52-7.89l-22.89-13.34a9 9 0 0 0-9 0l-22.89 13.34a9.1 9.1 0 0 0-4.52 7.89zm73 122a9.1 9.1 0 0 0 4.52 7.89l22.89 13.34a9 9 0 0 0 9 0l22.89-13.34a9.1 9.1 0 0 0 4.52-7.89v-26.67a9.1 9.1 0 0 0-4.52-7.89l-22.89-13.34a9 9 0 0 0-9 0l-22.89 13.34a9.1 9.1 0 0 0-4.52 7.89zm0-122a9.1 9.1 0 0 0 4.52 7.89l22.89 13.34a9 9 0 0 0 9 0l22.89-13.34a9.1 9.1 0 0 0 4.52-7.89v-26.67a9.1 9.1 0 0 0-4.52-7.89l-22.89-13.34a9 9 0 0 0-9 0l-22.89 13.34a9.1 9.1 0 0 0-4.52 7.89zm-146-127a9.1 9.1 0 0 0 4.52 7.89l22.89 13.34a9 9 0 0 0 9 0l22.89-13.34a9.1 9.1 0 0 0 4.52-7.89v-26.67a9.1 9.1 0 0 0-4.52-7.89l-22.89-13.34a9 9 0 0 0-9 0l-22.89 13.34a9.1 9.1 0 0 0-4.52 7.89zm146 0a9.1 9.1 0 0 0 4.52 7.89l22.89 13.34a9 9 0 0 0 9 0l22.89-13.34a9.1 9.1 0 0 0 4.52-7.89v-26.67a9.1 9.1 0 0 0-4.52-7.89l-22.89-13.34a9 9 0 0 0-9 0l-22.89 13.34a9.1 9.1 0 0 0-4.52 7.89zm-36 188a9.1 9.1 0 0 0 4.52 7.89l22.89 13.34a9 9 0 0 0 9 0l22.89-13.34a9.1 9.1 0 0 0 4.52-7.89v-26.67a9.1 9.1 0 0 0-4.52-7.89l-22.89-13.34a9 9 0 0 0-9 0l-22.89 13.34a9.1 9.1 0 0 0-4.52 7.89zm-75-250a9.1 9.1 0 0 0 4.52 7.89l22.89 13.34a9 9 0 0 0 9 0l22.89-13.34a9.1 9.1 0 0 0 4.52-7.89v-26.67a9.1 9.1 0 0 0-4.52-7.89l-22.89-13.34a9 9 0 0 0-9 0l-22.89 13.34a9.1 9.1 0 0 0-4.52 7.89zm75 0a9.1 9.1 0 0 0 4.52 7.89l22.89 13.34a9 9 0 0 0 9 0l22.89-13.34a9.1 9.1 0 0 0 4.52-7.89v-26.67a9.1 9.1 0 0 0-4.52-7.89l-22.89-13.34a9 9 0 0 0-9 0l-22.89 13.34a9.1 9.1 0 0 0-4.52 7.89zm-75 126a9.1 9.1 0 0 0 4.52 7.89l22.89 13.34a9 9 0 0 0 9 0l22.89-13.34a9.1 9.1 0 0 0 4.52-7.89v-26.67a9.1 9.1 0 0 0-4.52-7.89l-22.89-13.34a9 9 0 0 0-9 0l-22.89 13.34a9.1 9.1 0 0 0-4.52 7.89zm111-190a9.1 9.1 0 0 0 4.52 7.89l22.89 13.34a9 9 0 0 0 9 0l22.89-13.34a9.1 9.1 0 0 0 4.52-7.89v-26.67a9.1 9.1 0 0 0-4.52-7.89l-22.89-13.34a9 9 0 0 0-9 0l-22.89 13.34a9.1 9.1 0 0 0-4.52 7.89zm-146-127a9.1 9.1 0 0 0 4.52 7.89l22.89 13.34a9 9 0 0 0 9 0l22.89-13.34a9.1 9.1 0 0 0 4.52-7.89v-26.67a9.1 9.1 0 0 0-4.52-7.89l-22.89-13.34a9 9 0 0 0-9 0l-22.89 13.34a9.1 9.1 0 0 0-4.52 7.89zm73 0a9.1 9.1 0 0 0 4.52 7.89l22.89 13.34a9 9 0 0 0 9 0l22.89-13.34a9.1 9.1 0 0 0 4.52-7.89v-26.67a9.1 9.1 0 0 0-4.52-7.89l-22.89-13.34a9 9 0 0 0-9 0l-22.89 13.34a9.1 9.1 0 0 0-4.52 7.89zm73 0a9.1 9.1 0 0 0 4.52 7.89l22.89 13.34a9 9 0 0 0 9 0l22.89-13.34a9.1 9.1 0 0 0 4.52-7.89v-26.67a9.1 9.1 0 0 0-4.52-7.89l-22.89-13.34a9 9 0 0 0-9 0l-22.89 13.34a9.1 9.1 0 0 0-4.52 7.89zm-111 64a9.1 9.1 0 0 0 4.52 7.89l22.89 13.34a9 9 0 0 0 9 0l22.89-13.34a9.1 9.1 0 0 0 4.52-7.89v-26.67a9.1 9.1 0 0 0-4.52-7.89l-22.89-13.34a9 9 0 0 0-9 0l-22.89 13.34a9.1 9.1 0 0 0-4.52 7.89zm75 0a9.1 9.1 0 0 0 4.52 7.89l22.89 13.34a9 9 0 0 0 9 0l22.89-13.34a9.1 9.1 0 0 0 4.52-7.89v-26.67a9.1 9.1 0 0 0-4.52-7.89l-22.89-13.34a9 9 0 0 0-9 0l-22.89 13.34a9.1 9.1 0 0 0-4.52 7.89zm72 0a9.1 9.1 0 0 0 4.52 7.89l22.89 13.34a9 9 0 0 0 9 0l22.89-13.34a9.1 9.1 0 0 0 4.52-7.89v-26.67a9.1 9.1 0 0 0-4.52-7.89l-22.89-13.34a9 9 0 0 0-9 0l-22.89 13.34a9.1 9.1 0 0 0-4.52 7.89zm-147-129a9.1 9.1 0 0 0 4.52 7.89l22.89 13.34a9 9 0 0 0 9 0l22.89-13.34a9.1 9.1 0 0 0 4.52-7.89v-26.67a9.1 9.1 0 0 0-4.52-7.89l-22.89-13.34a9 9 0 0 0-9 0l-22.89 13.34a9.1 9.1 0 0 0-4.52 7.89zm75 0a9.1 9.1 0 0 0 4.52 7.89l22.89 13.34a9 9 0 0 0 9 0l22.89-13.34a9.1 9.1 0 0 0 4.52-7.89v-26.67a9.1 9.1 0 0 0-4.52-7.89l-22.89-13.34a9 9 0 0 0-9 0l-22.89 13.34a9.1 9.1 0 0 0-4.52 7.89zm-110-64a9.1 9.1 0 0 0 4.52 7.89l22.89 13.34a9 9 0 0 0 9 0l22.93-13.35a9.1 9.1 0 0 0 4.52-7.89v-26.66a9.1 9.1 0 0 0-4.52-7.89l-22.89-13.34a9 9 0 0 0-9 0l-22.89 13.34a9.1 9.1 0 0 0-4.52 7.89zm146 0a9.1 9.1 0 0 0 4.52 7.89l22.89 13.34a9 9 0 0 0 9 0l22.93-13.35a9.1 9.1 0 0 0 4.52-7.89v-26.66a9.1 9.1 0 0 0-4.52-7.89l-22.89-13.34a9 9 0 0 0-9 0l-22.89 13.34a9.1 9.1 0 0 0-4.52 7.89zm-146-127a9.1 9.1 0 0 0 4.52 7.89l22.89 13.34a9 9 0 0 0 9 0l22.93-13.35a9.1 9.1 0 0 0 4.52-7.89v-26.66a9.1 9.1 0 0 0-4.52-7.89l-22.89-13.34a9 9 0 0 0-9 0l-22.89 13.34a9.1 9.1 0 0 0-4.52 7.89zm73 0a9.1 9.1 0 0 0 4.52 7.89l22.89 13.34a9 9 0 0 0 9 0l22.93-13.35a9.1 9.1 0 0 0 4.52-7.89v-26.66a9.1 9.1 0 0 0-4.52-7.89l-22.89-13.34a9 9 0 0 0-9 0l-22.89 13.34a9.1 9.1 0 0 0-4.52 7.89zm73 0a9.1 9.1 0 0 0 4.52 7.89l22.89 13.34a9 9 0 0 0 9 0l22.93-13.35a9.1 9.1 0 0 0 4.52-7.89v-26.66a9.1 9.1 0 0 0-4.52-7.89l-22.89-13.34a9 9 0 0 0-9 0l-22.89 13.34a9.1 9.1 0 0 0-4.52 7.89zm-111-65a9.1 9.1 0 0 0 4.52 7.89l22.89 13.34a9 9 0 0 0 9 0l22.93-13.35a9.1 9.1 0 0 0 4.52-7.89v-26.66a9.1 9.1 0 0 0-4.52-7.89l-22.89-13.34a9 9 0 0 0-9 0l-22.89 13.34a9.1 9.1 0 0 0-4.52 7.89zm75 0a9.1 9.1 0 0 0 4.52 7.89l22.89 13.34a9 9 0 0 0 9 0l22.93-13.35a9.1 9.1 0 0 0 4.52-7.89v-26.66a9.1 9.1 0 0 0-4.52-7.89l-22.89-13.34a9 9 0 0 0-9 0l-22.89 13.34a9.1 9.1 0 0 0-4.52 7.89zm-110-64a9.1 9.1 0 0 0 4.52 7.89l22.89 13.34a9 9 0 0 0 9 0l22.93-13.35a9.1 9.1 0 0 0 4.52-7.89v-26.66a9.1 9.1 0 0 0-4.52-7.89l-22.89-13.34a9 9 0 0 0-9 0l-22.89 13.34a9.1 9.1 0 0 0-4.52 7.89zm73 0a9.1 9.1 0 0 0 4.52 7.89l22.89 13.34a9 9 0 0 0 9 0l22.93-13.35a9.1 9.1 0 0 0 4.52-7.89v-26.66a9.1 9.1 0 0 0-4.52-7.89l-22.89-13.34a9 9 0 0 0-9 0l-22.89 13.34a9.1 9.1 0 0 0-4.52 7.89zm73 0a9.1 9.1 0 0 0 4.52 7.89l22.89 13.34a9 9 0 0 0 9 0l22.93-13.35a9.1 9.1 0 0 0 4.52-7.89v-26.66a9.1 9.1 0 0 0-4.52-7.89l-22.89-13.34a9 9 0 0 0-9 0l-22.89 13.34a9.1 9.1 0 0 0-4.52 7.89zm-146-127a9.1 9.1 0 0 0 4.52 7.89l22.89 13.34a9 9 0 0 0 9 0l22.93-13.35a9.1 9.1 0 0 0 4.52-7.89v-26.66a9.1 9.1 0 0 0-4.52-7.89l-22.89-13.34a9 9 0 0 0-9 0l-22.89 13.34a9.1 9.1 0 0 0-4.52 7.89zm73 0a9.1 9.1 0 0 0 4.52 7.89l22.89 13.34a9 9 0 0 0 9 0l22.93-13.35a9.1 9.1 0 0 0 4.52-7.89v-26.66a9.1 9.1 0 0 0-4.52-7.89l-22.89-13.34a9 9 0 0 0-9 0l-22.89 13.34a9.1 9.1 0 0 0-4.52 7.89zm73 0a9.1 9.1 0 0 0 4.52 7.89l22.89 13.34a9 9 0 0 0 9 0l22.93-13.35a9.1 9.1 0 0 0 4.52-7.89v-26.66a9.1 9.1 0 0 0-4.52-7.89l-22.89-13.34a9 9 0 0 0-9 0l-22.89 13.34a9.1 9.1 0 0 0-4.52 7.89zm-36 64a9.1 9.1 0 0 0 4.52 7.89l22.89 13.34a9 9 0 0 0 9 0l22.93-13.35a9.1 9.1 0 0 0 4.52-7.89v-26.66a9.1 9.1 0 0 0-4.52-7.89l-22.89-13.34a9 9 0 0 0-9 0l-22.89 13.34a9.1 9.1 0 0 0-4.52 7.89zm72 0a9.1 9.1 0 0 0 4.52 7.89l22.89 13.34a9 9 0 0 0 9 0l22.93-13.35a9.1 9.1 0 0 0 4.52-7.89v-26.66a9.1 9.1 0 0 0-4.52-7.89l-22.89-13.34a9 9 0 0 0-9 0l-22.89 13.34a9.1 9.1 0 0 0-4.52 7.89zm-147-129a9.1 9.1 0 0 0 4.52 7.89l22.89 13.34a9 9 0 0 0 9 0l22.93-13.35a9.1 9.1 0 0 0 4.52-7.89v-26.66a9.1 9.1 0 0 0-4.52-7.89l-22.89-13.34a9 9 0 0 0-9 0l-22.89 13.34a9.1 9.1 0 0 0-4.52 7.89zm75 0a9.1 9.1 0 0 0 4.52 7.89l22.89 13.34a9 9 0 0 0 9 0l22.93-13.35a9.1 9.1 0 0 0 4.52-7.89v-26.66a9.1 9.1 0 0 0-4.52-7.89l-22.89-13.34a9 9 0 0 0-9 0l-22.89 13.34a9.1 9.1 0 0 0-4.52 7.89zm-110-64a9.1 9.1 0 0 0 4.52 7.89l22.89 13.34a9 9 0 0 0 9 0l22.93-13.35a9.1 9.1 0 0 0 4.52-7.89v-26.66a9.1 9.1 0 0 0-4.52-7.89l-22.89-13.34a9 9 0 0 0-9 0l-22.89 13.34a9.1 9.1 0 0 0-4.52 7.89zm73 0a9.1 9.1 0 0 0 4.52 7.89l22.89 13.34a9 9 0 0 0 9 0l22.93-13.35a9.1 9.1 0 0 0 4.52-7.89v-26.66a9.1 9.1 0 0 0-4.52-7.89l-22.89-13.34a9 9 0 0 0-9 0l-22.89 13.34a9.1 9.1 0 0 0-4.52 7.89zm-73-127a9.1 9.1 0 0 0 4.52 7.89l22.89 13.34a9 9 0 0 0 9 0l22.93-13.35a9.1 9.1 0 0 0 4.52-7.89v-26.66a9.1 9.1 0 0 0-4.52-7.89l-22.89-13.34a9 9 0 0 0-9 0l-22.89 13.34a9.1 9.1 0 0 0-4.52 7.89zm73 0a9.1 9.1 0 0 0 4.52 7.89l22.89 13.34a9 9 0 0 0 9 0l22.93-13.35a9.1 9.1 0 0 0 4.52-7.89v-26.66a9.1 9.1 0 0 0-4.52-7.89l-22.89-13.34a9 9 0 0 0-9 0l-22.89 13.34a9.1 9.1 0 0 0-4.52 7.89zm73 0a9.1 9.1 0 0 0 4.52 7.89l22.89 13.34a9 9 0 0 0 9 0l22.93-13.35a9.1 9.1 0 0 0 4.52-7.89v-26.66a9.1 9.1 0 0 0-4.52-7.89l-22.89-13.34a9 9 0 0 0-9 0l-22.89 13.34a9.1 9.1 0 0 0-4.52 7.89zm-111 64a9.1 9.1 0 0 0 4.52 7.89l22.89 13.34a9 9 0 0 0 9 0l22.93-13.35a9.1 9.1 0 0 0 4.52-7.89v-26.66a9.1 9.1 0 0 0-4.52-7.89l-22.89-13.34a9 9 0 0 0-9 0l-22.89 13.34a9.1 9.1 0 0 0-4.52 7.89zm75 0a9.1 9.1 0 0 0 4.52 7.89l22.89 13.34a9 9 0 0 0 9 0l22.93-13.35a9.1 9.1 0 0 0 4.52-7.89v-26.66a9.1 9.1 0 0 0-4.52-7.89l-22.89-13.34a9 9 0 0 0-9 0l-22.89 13.34a9.1 9.1 0 0 0-4.52 7.89zm72 0a9.1 9.1 0 0 0 4.52 7.89l22.89 13.34a9 9 0 0 0 9 0l22.93-13.35a9.1 9.1 0 0 0 4.52-7.89v-26.66a9.1 9.1 0 0 0-4.52-7.89l-22.89-13.34a9 9 0 0 0-9 0l-22.89 13.34a9.1 9.1 0 0 0-4.52 7.89zm-72-129a9.1 9.1 0 0 0 4.52 7.89l22.89 13.34a9 9 0 0 0 9 0l22.93-13.35a9.1 9.1 0 0 0 4.52-7.89v-26.66a9.1 9.1 0 0 0-4.52-7.89l-22.89-13.34a9 9 0 0 0-9 0l-22.89 13.34a9.1 9.1 0 0 0-4.52 7.89zm-110-64a9.1 9.1 0 0 0 4.52 7.89l22.89 13.34a9 9 0 0 0 9 0l22.93-13.35a9.1 9.1 0 0 0 4.52-7.89v-26.66a9.1 9.1 0 0 0-4.52-7.89l-22.89-13.34a9 9 0 0 0-9 0l-22.89 13.34a9.1 9.1 0 0 0-4.52 7.89zm73 0a9.1 9.1 0 0 0 4.52 7.89l22.89 13.34a9 9 0 0 0 9 0l22.93-13.35a9.1 9.1 0 0 0 4.52-7.89v-26.66a9.1 9.1 0 0 0-4.52-7.89l-22.89-13.34a9 9 0 0 0-9 0l-22.89 13.34a9.1 9.1 0 0 0-4.52 7.89zm73 0a9.1 9.1 0 0 0 4.52 7.89l22.89 13.34a9 9 0 0 0 9 0l22.93-13.35a9.1 9.1 0 0 0 4.52-7.89v-26.66a9.1 9.1 0 0 0-4.52-7.89l-22.89-13.34a9 9 0 0 0-9 0l-22.89 13.34a9.1 9.1 0 0 0-4.52 7.89zm-146-127a9.1 9.1 0 0 0 4.52 7.89l22.89 13.34a9 9 0 0 0 9 0L2256.34 57a9.1 9.1 0 0 0 4.52-7.89V22.45a9.1 9.1 0 0 0-4.52-7.89l-22.89-13.34a9 9 0 0 0-9 0l-22.89 13.34a9.1 9.1 0 0 0-4.52 7.89zm146 0a9.1 9.1 0 0 0 4.52 7.89l22.89 13.34a9 9 0 0 0 9 0L2402.34 57a9.1 9.1 0 0 0 4.52-7.89V22.45a9.1 9.1 0 0 0-4.52-7.89l-22.89-13.34a9 9 0 0 0-9 0l-22.89 13.34a9.1 9.1 0 0 0-4.52 7.89zm-111 64a9.1 9.1 0 0 0 4.52 7.89l22.89 13.34a9 9 0 0 0 9 0l22.93-13.35a9.1 9.1 0 0 0 4.52-7.89V86.45a9.1 9.1 0 0 0-4.52-7.89l-22.89-13.34a9 9 0 0 0-9 0l-22.89 13.34a9.1 9.1 0 0 0-4.52 7.89zm147 0a9.1 9.1 0 0 0 4.52 7.89l22.89 13.34a9 9 0 0 0 9 0l22.93-13.35a9.1 9.1 0 0 0 4.52-7.89V86.45a9.1 9.1 0 0 0-4.52-7.89l-22.89-13.34a9 9 0 0 0-9 0l-22.89 13.34a9.1 9.1 0 0 0-4.52 7.89zm39-64a9.1 9.1 0 0 0 4.52 7.89l22.89 13.34a9 9 0 0 0 9 0L2477.34 57a9.1 9.1 0 0 0 4.52-7.89V22.45a9.1 9.1 0 0 0-4.52-7.89l-22.89-13.34a9 9 0 0 0-9 0l-22.89 13.34a9.1 9.1 0 0 0-4.52 7.89zm73 0a9.1 9.1 0 0 0 4.52 7.89l22.89 13.34a9 9 0 0 0 9 0L2550.34 57a9.1 9.1 0 0 0 4.52-7.89V22.45a9.1 9.1 0 0 0-4.52-7.89l-22.89-13.34a9 9 0 0 0-9 0l-22.89 13.34a9.1 9.1 0 0 0-4.52 7.89zm73 0a9.1 9.1 0 0 0 4.52 7.89l22.89 13.34a9 9 0 0 0 9 0L2623.34 57a9.1 9.1 0 0 0 4.52-7.89V22.45a9.1 9.1 0 0 0-4.52-7.89l-22.89-13.34a9 9 0 0 0-9 0l-22.89 13.34a9.1 9.1 0 0 0-4.52 7.89zm-111 64a9.1 9.1 0 0 0 4.52 7.89l22.89 13.34a9 9 0 0 0 9 0l22.93-13.35a9.1 9.1 0 0 0 4.52-7.89V86.45a9.1 9.1 0 0 0-4.52-7.89l-22.89-13.34a9 9 0 0 0-9 0l-22.89 13.34a9.1 9.1 0 0 0-4.52 7.89zm75 0a9.1 9.1 0 0 0 4.52 7.89l22.89 13.34a9 9 0 0 0 9 0l22.93-13.35a9.1 9.1 0 0 0 4.52-7.89V86.45a9.1 9.1 0 0 0-4.52-7.89l-22.89-13.34a9 9 0 0 0-9 0l-22.89 13.34a9.1 9.1 0 0 0-4.52 7.89zm-112 1467a9.1 9.1 0 0 0 4.52 7.89l22.89 13.34a9 9 0 0 0 9 0l22.89-13.34a9.1 9.1 0 0 0 4.52-7.89v-26.67a9.1 9.1 0 0 0-4.52-7.89l-22.89-13.34a9 9 0 0 0-9 0l-22.89 13.34a9.1 9.1 0 0 0-4.52 7.89zm73 0a9.1 9.1 0 0 0 4.52 7.89l22.89 13.34a9 9 0 0 0 9 0l22.89-13.34a9.1 9.1 0 0 0 4.52-7.89v-26.67a9.1 9.1 0 0 0-4.52-7.89l-22.89-13.34a9 9 0 0 0-9 0l-22.89 13.34a9.1 9.1 0 0 0-4.52 7.89zm73 0a9.1 9.1 0 0 0 4.52 7.89l22.89 13.34a9 9 0 0 0 9 0l22.89-13.34a9.1 9.1 0 0 0 4.52-7.89v-26.67a9.1 9.1 0 0 0-4.52-7.89l-22.89-13.34a9 9 0 0 0-9 0l-22.89 13.34a9.1 9.1 0 0 0-4.52 7.89zm-146-127a9.1 9.1 0 0 0 4.52 7.89l22.89 13.34a9 9 0 0 0 9 0l22.89-13.34a9.1 9.1 0 0 0 4.52-7.89v-26.67a9.1 9.1 0 0 0-4.52-7.89l-22.89-13.34a9 9 0 0 0-9 0l-22.89 13.34a9.1 9.1 0 0 0-4.52 7.89zm73 0a9.1 9.1 0 0 0 4.52 7.89l22.89 13.34a9 9 0 0 0 9 0l22.89-13.34a9.1 9.1 0 0 0 4.52-7.89v-26.67a9.1 9.1 0 0 0-4.52-7.89l-22.89-13.34a9 9 0 0 0-9 0l-22.89 13.34a9.1 9.1 0 0 0-4.52 7.89zm73 0a9.1 9.1 0 0 0 4.52 7.89l22.89 13.34a9 9 0 0 0 9 0l22.89-13.34a9.1 9.1 0 0 0 4.52-7.89v-26.67a9.1 9.1 0 0 0-4.52-7.89l-22.89-13.34a9 9 0 0 0-9 0l-22.89 13.34a9.1 9.1 0 0 0-4.52 7.89zm-111-62a9.1 9.1 0 0 0 4.52 7.89l22.89 13.34a9 9 0 0 0 9 0l22.89-13.34a9.1 9.1 0 0 0 4.52-7.89v-26.67a9.1 9.1 0 0 0-4.52-7.89l-22.89-13.34a9 9 0 0 0-9 0l-22.89 13.34a9.1 9.1 0 0 0-4.52 7.89zm75 0a9.1 9.1 0 0 0 4.52 7.89l22.89 13.34a9 9 0 0 0 9 0l22.89-13.34a9.1 9.1 0 0 0 4.52-7.89v-26.67a9.1 9.1 0 0 0-4.52-7.89l-22.89-13.34a9 9 0 0 0-9 0l-22.89 13.34a9.1 9.1 0 0 0-4.52 7.89zm-75 126a9.1 9.1 0 0 0 4.52 7.89l22.89 13.34a9 9 0 0 0 9 0l22.89-13.34a9.1 9.1 0 0 0 4.52-7.89v-26.67a9.1 9.1 0 0 0-4.52-7.89l-22.89-13.34a9 9 0 0 0-9 0l-22.89 13.34a9.1 9.1 0 0 0-4.52 7.89zm75 0a9.1 9.1 0 0 0 4.52 7.89l22.89 13.34a9 9 0 0 0 9 0l22.89-13.34a9.1 9.1 0 0 0 4.52-7.89v-26.67a9.1 9.1 0 0 0-4.52-7.89l-22.89-13.34a9 9 0 0 0-9 0l-22.89 13.34a9.1 9.1 0 0 0-4.52 7.89zm-110-190a9.1 9.1 0 0 0 4.52 7.89l22.89 13.34a9 9 0 0 0 9 0l22.89-13.34a9.1 9.1 0 0 0 4.52-7.89v-26.67a9.1 9.1 0 0 0-4.52-7.89l-22.89-13.34a9 9 0 0 0-9 0l-22.89 13.34a9.1 9.1 0 0 0-4.52 7.89zm146 0a9.1 9.1 0 0 0 4.52 7.89l22.89 13.34a9 9 0 0 0 9 0l22.89-13.34a9.1 9.1 0 0 0 4.52-7.89v-26.67a9.1 9.1 0 0 0-4.52-7.89l-22.89-13.34a9 9 0 0 0-9 0l-22.89 13.34a9.1 9.1 0 0 0-4.52 7.89zm-146-127a9.1 9.1 0 0 0 4.52 7.89l22.89 13.34a9 9 0 0 0 9 0l22.89-13.34a9.1 9.1 0 0 0 4.52-7.89v-26.67a9.1 9.1 0 0 0-4.52-7.89l-22.89-13.34a9 9 0 0 0-9 0l-22.89 13.34a9.1 9.1 0 0 0-4.52 7.89zm146 0a9.1 9.1 0 0 0 4.52 7.89l22.89 13.34a9 9 0 0 0 9 0l22.89-13.34a9.1 9.1 0 0 0 4.52-7.89v-26.67a9.1 9.1 0 0 0-4.52-7.89l-22.89-13.34a9 9 0 0 0-9 0l-22.89 13.34a9.1 9.1 0 0 0-4.52 7.89zm-111 64a9.1 9.1 0 0 0 4.52 7.89l22.89 13.34a9 9 0 0 0 9 0l22.89-13.34a9.1 9.1 0 0 0 4.52-7.89v-26.67a9.1 9.1 0 0 0-4.52-7.89l-22.89-13.34a9 9 0 0 0-9 0l-22.89 13.34a9.1 9.1 0 0 0-4.52 7.89zm75 0a9.1 9.1 0 0 0 4.52 7.89l22.89 13.34a9 9 0 0 0 9 0l22.89-13.34a9.1 9.1 0 0 0 4.52-7.89v-26.67a9.1 9.1 0 0 0-4.52-7.89l-22.89-13.34a9 9 0 0 0-9 0l-22.89 13.34a9.1 9.1 0 0 0-4.52 7.89zm-75-129a9.1 9.1 0 0 0 4.52 7.89l22.89 13.34a9 9 0 0 0 9 0l22.89-13.34a9.1 9.1 0 0 0 4.52-7.89v-26.67a9.1 9.1 0 0 0-4.52-7.89l-22.89-13.34a9 9 0 0 0-9 0l-22.89 13.34a9.1 9.1 0 0 0-4.52 7.89zm75 0a9.1 9.1 0 0 0 4.52 7.89l22.89 13.34a9 9 0 0 0 9 0l22.89-13.34a9.1 9.1 0 0 0 4.52-7.89v-26.67a9.1 9.1 0 0 0-4.52-7.89l-22.89-13.34a9 9 0 0 0-9 0l-22.89 13.34a9.1 9.1 0 0 0-4.52 7.89zm-110-64a9.1 9.1 0 0 0 4.52 7.89l22.89 13.34a9 9 0 0 0 9 0l22.89-13.34a9.1 9.1 0 0 0 4.52-7.89v-26.67a9.1 9.1 0 0 0-4.52-7.89l-22.89-13.34a9 9 0 0 0-9 0l-22.89 13.34a9.1 9.1 0 0 0-4.52 7.89zm73 0a9.1 9.1 0 0 0 4.52 7.89l22.89 13.34a9 9 0 0 0 9 0l22.89-13.34a9.1 9.1 0 0 0 4.52-7.89v-26.67a9.1 9.1 0 0 0-4.52-7.89l-22.89-13.34a9 9 0 0 0-9 0l-22.89 13.34a9.1 9.1 0 0 0-4.52 7.89zm-73-127a9.1 9.1 0 0 0 4.52 7.89l22.89 13.34a9 9 0 0 0 9 0l22.93-13.35a9.1 9.1 0 0 0 4.52-7.89v-26.66a9.1 9.1 0 0 0-4.52-7.89l-22.89-13.34a9 9 0 0 0-9 0l-22.89 13.34a9.1 9.1 0 0 0-4.52 7.89zm146 0a9.1 9.1 0 0 0 4.52 7.89l22.89 13.34a9 9 0 0 0 9 0l22.93-13.35a9.1 9.1 0 0 0 4.52-7.89v-26.66a9.1 9.1 0 0 0-4.52-7.89l-22.89-13.34a9 9 0 0 0-9 0l-22.89 13.34a9.1 9.1 0 0 0-4.52 7.89zm-36 64a9.1 9.1 0 0 0 4.52 7.89l22.89 13.34a9 9 0 0 0 9 0l22.89-13.34a9.1 9.1 0 0 0 4.52-7.89v-26.67a9.1 9.1 0 0 0-4.52-7.89l-22.89-13.34a9 9 0 0 0-9 0l-22.89 13.34a9.1 9.1 0 0 0-4.52 7.89zm-75-129a9.1 9.1 0 0 0 4.52 7.89l22.89 13.34a9 9 0 0 0 9 0l22.93-13.35a9.1 9.1 0 0 0 4.52-7.89v-26.66a9.1 9.1 0 0 0-4.52-7.89l-22.89-13.34a9 9 0 0 0-9 0l-22.89 13.34a9.1 9.1 0 0 0-4.52 7.89zm75 0a9.1 9.1 0 0 0 4.52 7.89l22.89 13.34a9 9 0 0 0 9 0l22.93-13.35a9.1 9.1 0 0 0 4.52-7.89v-26.66a9.1 9.1 0 0 0-4.52-7.89l-22.89-13.34a9 9 0 0 0-9 0l-22.89 13.34a9.1 9.1 0 0 0-4.52 7.89zm-110-64a9.1 9.1 0 0 0 4.52 7.89l22.89 13.34a9 9 0 0 0 9 0l22.93-13.35a9.1 9.1 0 0 0 4.52-7.89v-26.66a9.1 9.1 0 0 0-4.52-7.89l-22.89-13.34a9 9 0 0 0-9 0l-22.89 13.34a9.1 9.1 0 0 0-4.52 7.89zm146 0a9.1 9.1 0 0 0 4.52 7.89l22.89 13.34a9 9 0 0 0 9 0l22.93-13.35a9.1 9.1 0 0 0 4.52-7.89v-26.66a9.1 9.1 0 0 0-4.52-7.89l-22.89-13.34a9 9 0 0 0-9 0l-22.89 13.34a9.1 9.1 0 0 0-4.52 7.89zm-73-127a9.1 9.1 0 0 0 4.52 7.89l22.89 13.34a9 9 0 0 0 9 0l22.93-13.35a9.1 9.1 0 0 0 4.52-7.89v-26.66a9.1 9.1 0 0 0-4.52-7.89l-22.89-13.34a9 9 0 0 0-9 0l-22.89 13.34a9.1 9.1 0 0 0-4.52 7.89zm37 64a9.1 9.1 0 0 0 4.52 7.89l22.89 13.34a9 9 0 0 0 9 0l22.93-13.35a9.1 9.1 0 0 0 4.52-7.89v-26.66a9.1 9.1 0 0 0-4.52-7.89l-22.89-13.34a9 9 0 0 0-9 0l-22.89 13.34a9.1 9.1 0 0 0-4.52 7.89zm-75-129a9.1 9.1 0 0 0 4.52 7.89l22.89 13.34a9 9 0 0 0 9 0l22.93-13.35a9.1 9.1 0 0 0 4.52-7.89v-26.66a9.1 9.1 0 0 0-4.52-7.89l-22.89-13.34a9 9 0 0 0-9 0l-22.89 13.34a9.1 9.1 0 0 0-4.52 7.89zm75 0a9.1 9.1 0 0 0 4.52 7.89l22.89 13.34a9 9 0 0 0 9 0l22.93-13.35a9.1 9.1 0 0 0 4.52-7.89v-26.66a9.1 9.1 0 0 0-4.52-7.89l-22.89-13.34a9 9 0 0 0-9 0l-22.89 13.34a9.1 9.1 0 0 0-4.52 7.89zm-110-64a9.1 9.1 0 0 0 4.52 7.89l22.89 13.34a9 9 0 0 0 9 0l22.93-13.35a9.1 9.1 0 0 0 4.52-7.89v-26.66a9.1 9.1 0 0 0-4.52-7.89l-22.89-13.34a9 9 0 0 0-9 0l-22.89 13.34a9.1 9.1 0 0 0-4.52 7.89zm146 0a9.1 9.1 0 0 0 4.52 7.89l22.89 13.34a9 9 0 0 0 9 0l22.93-13.35a9.1 9.1 0 0 0 4.52-7.89v-26.66a9.1 9.1 0 0 0-4.52-7.89l-22.89-13.34a9 9 0 0 0-9 0l-22.89 13.34a9.1 9.1 0 0 0-4.52 7.89zm-146-127a9.1 9.1 0 0 0 4.52 7.89l22.89 13.34a9 9 0 0 0 9 0l22.93-13.35a9.1 9.1 0 0 0 4.52-7.89v-26.66a9.1 9.1 0 0 0-4.52-7.89l-22.89-13.34a9 9 0 0 0-9 0l-22.89 13.34a9.1 9.1 0 0 0-4.52 7.89zm73 0a9.1 9.1 0 0 0 4.52 7.89l22.89 13.34a9 9 0 0 0 9 0l22.93-13.35a9.1 9.1 0 0 0 4.52-7.89v-26.66a9.1 9.1 0 0 0-4.52-7.89l-22.89-13.34a9 9 0 0 0-9 0l-22.89 13.34a9.1 9.1 0 0 0-4.52 7.89zm73 0a9.1 9.1 0 0 0 4.52 7.89l22.89 13.34a9 9 0 0 0 9 0l22.93-13.35a9.1 9.1 0 0 0 4.52-7.89v-26.66a9.1 9.1 0 0 0-4.52-7.89l-22.89-13.34a9 9 0 0 0-9 0l-22.89 13.34a9.1 9.1 0 0 0-4.52 7.89zm-36 64a9.1 9.1 0 0 0 4.52 7.89l22.89 13.34a9 9 0 0 0 9 0l22.93-13.35a9.1 9.1 0 0 0 4.52-7.89v-26.66a9.1 9.1 0 0 0-4.52-7.89l-22.89-13.34a9 9 0 0 0-9 0l-22.89 13.34a9.1 9.1 0 0 0-4.52 7.89zm-75-129a9.1 9.1 0 0 0 4.52 7.89l22.89 13.34a9 9 0 0 0 9 0l22.93-13.35a9.1 9.1 0 0 0 4.52-7.89v-26.66a9.1 9.1 0 0 0-4.52-7.89l-22.89-13.34a9 9 0 0 0-9 0l-22.89 13.34a9.1 9.1 0 0 0-4.52 7.89zm-35-64a9.1 9.1 0 0 0 4.52 7.89l22.89 13.34a9 9 0 0 0 9 0l22.93-13.35a9.1 9.1 0 0 0 4.52-7.89v-26.66a9.1 9.1 0 0 0-4.52-7.89l-22.89-13.34a9 9 0 0 0-9 0l-22.89 13.34a9.1 9.1 0 0 0-4.52 7.89zm73 0a9.1 9.1 0 0 0 4.52 7.89l22.89 13.34a9 9 0 0 0 9 0l22.93-13.35a9.1 9.1 0 0 0 4.52-7.89v-26.66a9.1 9.1 0 0 0-4.52-7.89l-22.89-13.34a9 9 0 0 0-9 0l-22.89 13.34a9.1 9.1 0 0 0-4.52 7.89zm73 0a9.1 9.1 0 0 0 4.52 7.89l22.89 13.34a9 9 0 0 0 9 0l22.93-13.35a9.1 9.1 0 0 0 4.52-7.89v-26.66a9.1 9.1 0 0 0-4.52-7.89l-22.89-13.34a9 9 0 0 0-9 0l-22.89 13.34a9.1 9.1 0 0 0-4.52 7.89zm-146-127a9.1 9.1 0 0 0 4.52 7.89l22.89 13.34a9 9 0 0 0 9 0l22.93-13.35a9.1 9.1 0 0 0 4.52-7.89v-26.66a9.1 9.1 0 0 0-4.52-7.89l-22.89-13.34a9 9 0 0 0-9 0l-22.89 13.34a9.1 9.1 0 0 0-4.52 7.89zm73 0a9.1 9.1 0 0 0 4.52 7.89l22.89 13.34a9 9 0 0 0 9 0l22.93-13.35a9.1 9.1 0 0 0 4.52-7.89v-26.66a9.1 9.1 0 0 0-4.52-7.89l-22.89-13.34a9 9 0 0 0-9 0l-22.89 13.34a9.1 9.1 0 0 0-4.52 7.89zm-38 64a9.1 9.1 0 0 0 4.52 7.89l22.89 13.34a9 9 0 0 0 9 0l22.93-13.35a9.1 9.1 0 0 0 4.52-7.89v-26.66a9.1 9.1 0 0 0-4.52-7.89l-22.89-13.34a9 9 0 0 0-9 0l-22.89 13.34a9.1 9.1 0 0 0-4.52 7.89z" opacity=".2"/>
  </g>
</svg>
