<svg xmlns="http://www.w3.org/2000/svg" viewBox="0 0 139.63 34.85">
  <g fill="#fffffe" fill-rule="evenodd">
    <path d="M42.75 34.7h-3.21v-.47h.87v-6.57h-.87v-.47h3.21v.47h-.86v6.57h.86v.47M55.26 34.83h-.8l-3.99-5.58v4.98h.9v.47h-2.59v-.47h.95v-5.98l-.36-.59h-.83v-.47h2.28l3.72 5.25v-4.78h-.91v-.47h2.6v.47h-.97v7.17M63.13 34.81h-.63v-2.05h.63v.84a2.15 2.15 0 0 0 1.47.56 1.1 1.1 0 0 0 1.23-1c0-.51-.34-.87-1.4-1.56a5.29 5.29 0 0 1-1.56-1.16 1.94 1.94 0 0 1-.44-1.29 2.09 2.09 0 0 1 2.33-2.08 3 3 0 0 1 1.24.23V27h.62v1.95H66v-.79a2.06 2.06 0 0 0-1.22-.42 1 1 0 0 0-1.05 1c0 .45.26.74 1.36 1.43l1 .64a2.62 2.62 0 0 1 .7.74 2.12 2.12 0 0 1 .32 1.17 2.16 2.16 0 0 1-2.3 2.21 3.14 3.14 0 0 1-1.67-.44v.4M78.12 34.7h-3.69v-.47h1.11v-6.37h-1.98v.94h-.64v-1.93h.64v.32h5.43v-.32h.63v1.93h-.63v-.94h-1.97v6.37h1.1v.47M87.78 34.7h-3.21v-.47h.87v-6.57h-.87v-.47h3.21v.47h-.86v6.57h.86v.47M97.71 34.7h-3.69v-.47h1.11v-6.37h-1.98v.94h-.63v-1.93h.63v.32h5.43v-.32h.64v1.93h-.64v-.94h-1.97v6.37h1.1v.47M112.75 27.67h-1V32a2.49 2.49 0 0 1-1.42 2.55 4.11 4.11 0 0 1-1.66.35c-1.86 0-3.06-1-3.06-2.58v-4.6h-.87v-.48H108v.48h-.86v4.24c0 1.15.2 1.68.79 2a2.11 2.11 0 0 0 1 .22 2 2 0 0 0 2.18-2.2v-4.3h-1v-.49h2.66v.48M123.31 34.7h-3.69v-.47h1.11v-6.37h-1.98v.94h-.63v-1.93h.63v.32h5.43v-.32h.63v1.93h-.63v-.94h-1.97v6.37h1.1v.47M135.82 34.7h-5.45v-.47h.87v-6.57h-.87v-.47h4.72v-.32h.62v1.81h-.61v-.82h-2.38v2.69h1.83v-.78l.62-.01V32l-.62.02v-.8h-1.83v2.81h2.49v-.84h.61v1.51M43.42 20.11H47c2.67 0 4.3-1.58 4.3-4.17a4.28 4.28 0 0 0-4.3-4.53h-3.58zm0-10.12h3.25c2.07 0 3.53-1.67 3.53-4S48.83 2.12 47 2.12h-3.58zm-5.19 11.54v-1.17h2.39V1.83h-2.39V.66h9.68a5.22 5.22 0 0 1 5.26 5.19 5 5 0 0 1-4.69 4.68 6.87 6.87 0 0 1 2.58.66 5.26 5.26 0 0 1 3.12 4.9 5.42 5.42 0 0 1-5.66 5.44zM62.62 10.72h3.06a4 4 0 0 0 4.11-4.37c0-2.71-1.5-4.23-4.17-4.23h-3v8.6m13.22 10.81h-2.71c-1.88 0-2.23-.19-3.28-1.86l-4.74-7.5h-2.49v8.19H65v1.17h-7.57v-1.17h2.39V1.83h-2.39V.66h8.85c3.09 0 4.84.86 5.8 2.82a6.44 6.44 0 0 1 .64 2.81 5.12 5.12 0 0 1-4.78 5.47l4.59 7c.76 1.17 1.27 1.55 2.07 1.55h1.24v1.2M79.85 11.1c0 5.34 3 9.2 7.13 9.2s7-3.89 7-9.2-3-9.17-7-9.17-7.16 3.79-7.16 9.17m-3.15 0C76.7 5.18 81.34.28 87 .28S97.17 5.22 97.17 11.1 92.52 21.94 87 21.94 76.7 17 76.7 11.13M110.34 13.15l-3.41-8.88-3.6 8.88h7m7.48 8.38h-7.26v-1.17h2.55l-2.23-5.69h-8.15l-2.33 5.69H103v1.2h-6v-1.2h1.66L106.9 0h1.1l8 20.33h1.81v1.2M125 20h3.82c4.36 0 7.67-3.83 7.64-8.85 0-4.87-3.37-8.82-7.58-8.82H125V20m-5.19 1.58v-1.22h2.38V1.83h-2.38V.66h9.39a10.44 10.44 0 0 1 0 20.87h-9.36M.06 17.69v-.1l-.06.05.06.05M16.54 21.48a77.37 77.37 0 0 0 15.28 5.76V21.7a74.58 74.58 0 0 1-8.71-3.14 74.47 74.47 0 0 0-6.57 2.92M9.93 25.23a76.6 76.6 0 0 0 21.89 9.53v-5.55a73.17 73.17 0 0 1-16.49-7.09c-1.85 1-3.65 2-5.4 3.11M23.1 16.89a75.4 75.4 0 0 1 8.72-3.14V8.18a77.41 77.41 0 0 0-15.33 5.75 91.92 91.92 0 0 0 6.61 3M8.6 10.14A75.31 75.31 0 0 1 .06 2.72v7.44q2 1.81 4.14 3.5a70.62 70.62 0 0 1 4.4-3.52M31.82 19.72v-4a71.04 71.04 0 0 0-6.46 2c2.11.75 4.27 1.42 6.46 2M14.22 13.93q-2.58-1.57-5-3.35a69.93 69.93 0 0 0-4.73 3.31q2.29 1.77 4.73 3.36 2.43-1.76 5-3.32M.06 32.72v2.06H26a73.56 73.56 0 0 1-16.74-9.11 74.69 74.69 0 0 0-9.2 7"/>
    <path d="M4.22 21.67C2.79 22.78 1.4 24 .06 25.16v7.48a75.92 75.92 0 0 1 8.6-7.42c-1.53-1.12-3-2.31-4.44-3.55M9.23 18.12a67.08 67.08 0 0 0-4.71 3.31q2.3 1.77 4.73 3.36 2.45-1.75 5-3.32a53.8 53.8 0 0 1-5-3.35M15.32 20.84q2.89-1.69 5.94-3.12-3.06-1.44-6-3.15-2.74 1.43-5.37 3.12 2.64 1.68 5.43 3.15M4.22 21.2q2.15-1.85 4.41-3.52Q6.35 16 4.2 14.12 2.05 15.79.06 17.59v.1q2 1.83 4.16 3.51M.06 10.24v7.26a59.52 59.52 0 0 1 3.87-3.61q-2-1.75-3.87-3.65M.06 17.77v7.31A62.32 62.32 0 0 1 4 21.43C2.61 20.26 1.32 19 .06 17.77"/>
    <path d="M4.52 21.43q2.3 1.77 4.73 3.36 2.45-1.75 5-3.32a53.8 53.8 0 0 1-5-3.35 63.1 63.1 0 0 0-4.73 3.31M14.22 13.93q-2.58-1.57-5-3.35a69.93 69.93 0 0 0-4.73 3.31q2.29 1.77 4.73 3.36 2.43-1.76 5-3.32M15.32 20.84q2.89-1.69 5.94-3.12-3.06-1.44-6-3.15-2.74 1.43-5.37 3.12 2.64 1.68 5.43 3.15M31.8.62a77.16 77.16 0 0 0-21.94 9.52q2.63 1.69 5.42 3.16a72.93 72.93 0 0 1 16.54-7.1V.62M25.91.62H.06v2a74.32 74.32 0 0 0 9.13 7.09A73.74 73.74 0 0 1 25.91.62"/>
  </g>
</svg>
