<svg xmlns="http://www.w3.org/2000/svg" viewBox="0 0 2203.5 2187.42">
  <g fill-rule="evenodd">
    <path fill="#73ad43" d="M10.06 1232.78A281.41 281.41 0 0 0 82.17 1506L677 2103.68a285 285 0 0 0 273.91 74.48l817.78-213.56a283.22 283.22 0 0 0 201.8-198.71l223-811.25a281.44 281.44 0 0 0-72.1-273.2L1526.51 83.75A285 285 0 0 0 1252.6 9.26L434.82 222.82A283.25 283.25 0 0 0 233 421.53z"/>
    <path fill="#f6f6f6" d="M1003.44 1935.5c-43.34-14.11-92.74-30-149.76-47.27-546.45-165.91-444-56.55-573.19-611.77s-172.91-412 244.31-801.27 271-355.43 817.52-189.49 444 56.55 573.19 611.77 172.91 412-244.31 801.28c-337.75 315.15-306.35 352.95-572 267.92"/>
  </g>
</svg>
