<svg xmlns="http://www.w3.org/2000/svg" width="69" height="75">
    <g fill="none" fill-rule="evenodd">
        <path stroke="#FEFEFE" stroke-width=".73" d="M1 23.98V51.1a9.07 9.07 0 0 0 4.66 7.89l24.03 13.56a9.5 9.5 0 0 0 9.32 0l24.03-13.56a9.07 9.07 0 0 0 4.66-7.9V23.99a9.07 9.07 0 0 0-4.66-7.89L39 2.53a9.5 9.5 0 0 0-9.32 0L5.66 16.1A9.07 9.07 0 0 0 1 23.98z"/>
        <path stroke="#FEFEFE" stroke-width=".73" d="M9.36 18.64L2.99 41.42a7.8 7.8 0 0 0 2.06 7.67l17 16.78a8.24 8.24 0 0 0 7.82 2.1l23.37-6c2.8-.72 5-2.85 5.77-5.58l6.37-22.78a7.8 7.8 0 0 0-2.06-7.67l-17-16.78a8.24 8.24 0 0 0-7.83-2.1l-23.37 6c-2.8.72-5 2.85-5.76 5.58z"/>
        <path stroke="#FEFEFE" stroke-width=".73" d="M31.47 61.25c-1.24-.4-2.66-.84-4.3-1.33-15.69-4.66-12.75-1.59-16.46-17.2-3.7-15.62-4.96-11.59 7.02-22.54 11.98-10.94 7.78-10 23.47-5.32 15.7 4.66 12.75 1.59 16.46 17.2 3.72 15.61 4.97 11.59-7.01 22.53-9.7 8.87-8.8 9.93-16.43 7.54l-2.75-.88z"/>
        <path fill="#FEFEFE" d="M21.06 29.07H12.8c-.26 0-.4.14-.4.41v1.23c0 .28.14.41.4.41h2.8c.16 0 .23.08.23.24V44.2c0 .28.13.41.4.41h1.4c.25 0 .38-.13.38-.4V31.35c0-.16.08-.24.25-.24h2.8c.26 0 .4-.13.4-.4v-1.24c0-.27-.14-.41-.4-.41M28.39 37.64c0 .17-.08.25-.22.25h-4.29c-.15 0-.22-.08-.22-.25V36.1c0-.61.13-1.06.38-1.34s.66-.42 1.22-.42h1.53c.56 0 .97.14 1.22.42.25.28.38.73.38 1.34v1.54zm-1.31-5.36h-2.13c-1.1 0-1.95.33-2.55.98-.6.65-.9 1.58-.9 2.77v4.83c0 1.17.3 2.1.9 2.75.6.66 1.45 1 2.55 1h5.1c.27 0 .4-.14.4-.4v-1.2c0-.3-.13-.44-.4-.44h-4.79c-1.08 0-1.62-.58-1.62-1.76v-1.04c0-.16.08-.24.24-.24h6.27c.26 0 .4-.15.4-.44v-3.06c0-1.2-.3-2.12-.92-2.77a3.33 3.33 0 0 0-2.55-.98zM53.15 42.4c0 .14-.08.21-.25.21h-2.74c-.62 0-1.08-.12-1.37-.37-.29-.24-.43-.73-.43-1.28v-.74c0-.55.14-.95.43-1.2s.75-.37 1.37-.37h2.74c.17 0 .25.07.25.22v3.52zm1.24-9.13a3.27 3.27 0 0 0-2.55-.99H47.5c-.26 0-.4.13-.4.39v1.2c0 .3.14.44.4.44h4.04c1.09 0 1.63.59 1.63 1.76V37h-3.07c-1.22 0-2.17.3-2.83.9-.67.59-1 1.42-1 2.5v.87c0 1.08.33 1.9 1 2.5.66.58 1.6.87 2.83.87h5.2v-8.6c0-1.18-.3-2.1-.9-2.76zM37.8 32.28h-.83c-.52 0-.99.12-1.4.36-.43.25-.72.57-.87.97h-.08v-.92c0-.27-.13-.4-.38-.4h-1.4c-.26 0-.38.13-.38.4v11.5c0 .28.12.41.38.41h1.4c.25 0 .38-.13.38-.4v-7.67c0-1.46.61-2.2 1.84-2.2h1.34c.25.05.38-.07.38-.38v-1.26c0-.27-.13-.4-.38-.4M45.05 32.28h-.82c-.52 0-1 .12-1.42.36-.42.25-.7.57-.85.97h-.1v-.92c0-.27-.12-.4-.37-.4h-1.4c-.25 0-.38.13-.38.4v11.5c0 .28.13.41.38.41h1.4c.25 0 .38-.13.38-.4v-7.67c0-1.46.61-2.2 1.84-2.2h1.34c.25.05.38-.07.38-.38v-1.26c0-.27-.13-.4-.38-.4"/>
    </g>
</svg>
