<svg xmlns="http://www.w3.org/2000/svg" viewBox="0 0 111.91 41.85">
  <defs>
    <mask id="verily-logo" width="24.23" height="31.44" x="87.68" y="10.41" maskUnits="userSpaceOnUse">
      <path fill="#fff" fill-rule="evenodd" d="M87.68 10.41h24.23v31.44H87.68V10.41z"/>
    </mask>
  </defs>
      <path fill="#fff" fill-rule="evenodd" d="M23.61 10.41H18.7a1.41 1.41 0 0 0-1.21.82l-5 13.33c-.18.45-.47.45-.65 0l-5-13.33a1.41 1.41 0 0 0-1.21-.82H.62a.56.56 0 0 0-.56.82l8.38 20.7a1.1 1.1 0 0 0 1 .82h5.36a1.1 1.1 0 0 0 1-.82l8.39-20.7a.57.57 0 0 0-.57-.82M72.07 10.41h-4.92a.89.89 0 0 0-.89.88v20.6a.88.88 0 0 0 .89.87h4.92a.88.88 0 0 0 .89-.87v-20.6a.89.89 0 0 0-.89-.88M83.58 1.76h-4.92a.89.89 0 0 0-.89.88v29.25a.88.88 0 0 0 .89.87h4.92a.88.88 0 0 0 .89-.87V2.64a.89.89 0 0 0-.89-.88M69.61 0a3.75 3.75 0 0 0-3.77 3.73 3.77 3.77 0 0 0 7.54 0A3.75 3.75 0 0 0 69.61 0M39.22 19h-7.56c-.88 0-.6-.73-.6-.73a4.39 4.39 0 0 1 1.06-1.7 4.56 4.56 0 0 1 3.32-1.3 4.66 4.66 0 0 1 3.46 1.23 3.83 3.83 0 0 1 1 1.8s.16.69-.67.69m-3.87-8.89a10.73 10.73 0 0 0-7.55 3.13 10.83 10.83 0 0 0-2.41 3.62 12.32 12.32 0 0 0-.9 4.72 12.71 12.71 0 0 0 .93 4.91 10.77 10.77 0 0 0 2.49 3.66 11.46 11.46 0 0 0 8 3.07 10.3 10.3 0 0 0 8.85-4.37l.21-.33a.37.37 0 0 0-.19-.52l-4.23-2.1a.5.5 0 0 0-.61.11l-.23.3a4.74 4.74 0 0 1-3.75 1.49 5.1 5.1 0 0 1-5.06-3.69s-.16-.69.67-.69h13.83a.85.85 0 0 0 .85-.84V21.4a11.63 11.63 0 0 0-2.9-8.26 10.72 10.72 0 0 0-8-3"/>
      <g mask="url(#verily-logo)">
        <path fill="#fff" fill-rule="evenodd" d="M111.29 10.41h-4.91a1.41 1.41 0 0 0-1.21.82l-5 13.33c-.18.45-.47.45-.65 0l-5-13.33a1.41 1.41 0 0 0-1.21-.82H88.3a.56.56 0 0 0-.56.82l7.74 19.64a22.89 22.89 0 0 1 .88 2.52 3.14 3.14 0 0 1-.72 1.82 1.86 1.86 0 0 1-1.53.86 4.35 4.35 0 0 1-2.62-1 .59.59 0 0 0-1 .26L89 39.21a1 1 0 0 0 .34 1.08 8.66 8.66 0 0 0 4.89 1.56 8.07 8.07 0 0 0 7.46-4.85l1.31-3.43.64-1.63 8.18-20.71a.57.57 0 0 0-.57-.82"/>
      </g>
      <path fill="#fff" fill-rule="evenodd" d="M62.12 10.11a8.52 8.52 0 0 0-2.91.93 10.77 10.77 0 0 0-2.49 1.76c-.32.29-.55.21-.55-.22V11.2a.78.78 0 0 0-.78-.78h-5.12a.78.78 0 0 0-.78.78V32a.78.78 0 0 0 .78.78h5.12a.78.78 0 0 0 .78-.78v-8.87a8.85 8.85 0 0 1 1.38-5.19 4.8 4.8 0 0 1 4.19-2h.6a.7.7 0 0 0 .6-.78v-4.37a.71.71 0 0 0-.79-.72M22.63 37.24H1.84a.62.62 0 0 0-.63.61v1.06a.63.63 0 0 0 .63.62h20.79a.63.63 0 0 0 .63-.62v-1.06a.62.62 0 0 0-.63-.61"/>
</svg>
